<svg id="Layer_1" data-name="Layer 1" xmlns="http://www.w3.org/2000/svg" viewBox="0 0 10670.21 1822.81"><defs><style>.cls-1{fill:#212529;}</style></defs><title>conveyor belt no bg</title><path class="cls-1" d="M-50.38,224.58q590.39,0,1180.76.09C1241,224.74,1309.62,318,1273,417.08c-20.87,56.4-72.63,90.32-140.43,90.38q-418.9.38-837.8.14-763.57,0-1527.14,0c-108.56,0-176.84-90.1-143.94-188.85,19.9-59.73,72.1-94,145.23-94.17,147.28-.27,294.55,0,441.83,0ZM-1366.42,401c11.62,11.46,20.63,28.05,31.62,29.48,18.77,2.46,25.68,5.8,27.08,26.34,1.68,24.68,31.44,35.5,48.44,18,15.83-16.28,22.61-10.34,35.86,3.06,17.78,18,41.23,18.93,58.34-1.29,13.69-16.19,21.6-16.82,35.48-.93,19.13,21.88,39.64,19.44,61.8,1,6.58-5.47,25-6.48,30.82-1.36,23.09,20.46,42,19.7,64.92-.42,5.87-5.16,24.49-3.59,31.73,2,22.55,17.48,41.09,18.7,63.39-.69,6.21-5.4,25.09-5.12,31.66.36,22.1,18.41,42.68,21.19,61.6-.74,12.26-14.22,21-16.07,33.37-1.93,20.78,23.67,41.22,20.93,64.52,1.58,6.31-5.24,24.85-4.4,31.6,1.15,22.23,18.3,42.7,21.12,61.65-1.21,14.49-17.07,22.57-12.22,35.8,1.73,18.08,19.07,40.7,20,58.55-.44,13.32-15.25,21.87-17.51,35.91-1.3,19.15,22.1,39.26,20,61.38.89,6.48-5.59,25.69-6,31.92-.61,23.47,20.41,42.6,20,65.15-1.17,5.51-5.18,24.11-5.43,29.3-.36,22.46,21.89,41.6,21.08,65,1.34,6.18-5.21,24.64-4.32,31.42,1.19,22.35,18.21,40.86,18.85,63.26,0,6.65-5.58,25.45-6.47,31.52-1.22,23.23,20.07,42.29,20.52,64.89-.82,5.39-5.09,23.74-5,29.37.17,22.91,20.88,42.41,20,65.87.79,6.45-5.27,24.56-4.8,31.47.57,23.33,18.13,42.52,20.65,64.61-2,4.85-5,23.38-4.81,28.57.23,22.7,22.05,42.16,20,65.6,1.09,6.48-5.22,24.88-4.77,31.32.71,23.5,19.94,42.42,19.6,64.4-2.25,5.18-5.15,24.18-5.07,29.55.12,22.49,21.73,41.76,21,65.29,1.59,6.4-5.28,24.71-4.93,31.32.46,22,18,40.26,20.24,62.74.61,6.61-5.78,26.07-7.15,31.68-2,23.16,21.44,42.39,19.75,65.71.46,6.14-5.07,24.2-3.66,31.31,1.85,22.31,17.27,40.58,19.1,62.56-.91,6.1-5.56,25.29-5.84,31.61-.46,23.61,20.08,42.83,19.21,65.27-1.6,5.48-5.08,23.82-5.12,29.1,0,22.54,21.7,41.81,20.91,65.34,1.38,6.37-5.28,25.18-4.6,31.72,1,22.16,19,40.44,18.4,62.66.25,6.84-5.57,25.54-6.89,31.26-1.75,22.95,20.59,42,20.92,64.89.07,5.8-5.28,22.67-5.54,29.81-.92,23.77,15.37,43.85,8.22,52.28-18.53,3-9.45,14.15-20,23.77-23,25.87-8.07,32.51-28.66,17.2-52.47-4.51-7-3.12-22.55,1.84-30,14.89-22.45,6.11-43.54-20.93-50.42-8.81-2.24-19.64-12.27-22.09-20.87-8-28.13-26.14-35.83-50.88-22.41-8.28,4.5-25.09,2.73-32.84-3.07-21.29-15.92-41-19.41-59,1.25-13,14.95-22,18-36.06,1.54-19.1-22.34-41.36-22.87-60.66-.51-13.83,16-22.08,14.73-35.83-.74-19-21.42-39.66-19.72-61.17.82-5.7,5.45-24.93,5.37-31.25,0-23.28-19.84-42.47-20.67-65.11.92-5.54,5.28-24.35,5.73-29.61.67-24-23.09-43.72-25.36-66.41,1.73-3.79,4.54-23.45,2.85-29.41-2.74-22.82-21.41-41.88-20.32-64.84,0-6,5.34-25.51,4.81-31.56-.82-21.76-20.22-42.33-22-61.06,0-14.14,16.61-22.72,14.55-36-.13-19.69-21.78-39.64-19.48-61.4.36-6,5.48-25.7,5.27-31.8-.31-21.82-20-42.83-22.25-61.42-.23-14.18,16.81-22.82,15.51-35.61.28-18.12-21.58-40-20.61-57.91-1.78-14.83,15.58-23,19-38.54.52-17.18-20.42-40.24-20-57.74.44-13.32,15.59-22.19,17.3-35.93,1.48-19.16-22-40.88-22.75-60.21-.47-13.53,15.6-22.3,14.92-36-.54-19.18-21.64-39.58-19.67-61.15.72-5.89,5.57-25.43,5.59-31.82.12-23.35-20-42.38-21.61-64.79,1.31-5.13,5.24-24.49,5.58-29.37.52-23.64-24.45-43.33-24.84-66.5.66-4.33,4.76-23.58,3.38-29.57-2.12-23-21.11-42.16-21.89-64.72.75-5.37,5.38-25,6.08-29.56,1.12-23.21-25.43-42.85-24.57-66.3-.37-4.91,5.05-24.21,4.79-29.24-.41-22.15-22.92-41.22-21.42-64.7-1.94-6.6,5.48-25.39,5.75-31.75.35-23.13-19.64-42-21.57-64.3,1.18-5.22,5.32-24.62,6-29.3,1-23.61-25-43.55-23.87-67.18,0-4.93,5-24,4.07-29.76-1.35-22.57-21.16-41.29-21.8-64.09-.12-5.58,5.3-25,4.4-31.53-1.23-21.88-18.83-42-22.35-61.39.26-13.55,15.79-22.47,15.38-36.11-.2-19.21-21.95-39.48-19.94-61.22.09-6.07,5.59-25.46,6.2-31.29.9-23-20.88-41.89-21.14-64.9,0-5.77,5.29-25.17,4.54-31.4-1.09-21.92-19.79-39.93-19.3-62.2-.61-6.85,5.74-24.1,6.35-32.38,1.74-24.48-13.61-43.31-5.46-51.23,22.64-2.4,8.54-13.26,18.23-22.13,20.76-27.56,7.82-34.64,27.1-19.2,51.1,4.76,7.39,2.3,20.75.17,30.75C-1351.68,387.53-1358.78,392.16-1366.42,401Z" transform="translate(1384.66 -217.19)"/><path class="cls-1" d="M1187.29,441.76c3,8.69-2.67,12.29-10.8,16.15-8.82,4.19-12.09-.51-16.54-6.17-10.77-13.73-28.85-14-38.94-.14-5.18,7.12-9.71,9.35-18.17,5.57-7.95-3.55-11-7.69-9.74-16.76,2.26-16.35-11.3-30.07-27.34-27.58-9.06,1.41-13-1.34-16.76-9.36-4-8.59-1.54-13.08,5.29-18.35,13.69-10.57,13.43-27.73.21-38.86-5.1-4.29-11.11-7.28-6.3-16.51,4.07-7.82,7.09-12.43,17.34-11.17,17.83,2.19,29.35-10.35,27.43-28.95-.87-8.4,2.18-12.1,9.64-15.18s12.05-2.61,17.45,4c12.37,15,28.23,14.33,41,.41,3.11-3.38,10.16-4.7,15.23-4.35,7.06.48,12,3.82,11.43,13.29-1.26,22.05,8.81,31.08,30.48,31.43,4.48.07,11,5,12.71,9.27s.46,12.37-2.73,15.54c-15,14.89-14.86,28.24.16,43.67,3.27,3.36,3.88,12.25,1.86,16.93-1.74,4-9.06,8.11-13.76,7.94C1198.16,411.9,1186.22,422.53,1187.29,441.76Zm-46.58-117.37a41.31,41.31,0,0,0-42.08,40.13c-.55,23.25,18.15,42.75,41.22,43,23.3.23,41.84-18.38,42-42.12C1181.93,342.66,1163.84,324.62,1140.71,324.39Z" transform="translate(1384.66 -217.19)"/><path class="cls-1" d="M1168.72,365.26c.2,16.35-12.14,29.05-28.33,29.15a28.77,28.77,0,0,1-28.74-29c.14-15.64,12-27.6,27.85-28C1156.2,336.9,1168.51,348.66,1168.72,365.26Z" transform="translate(1384.66 -217.19)"/><path class="cls-1" d="M-1193.46,441.16c3,8.68-2.67,12.29-10.8,16.15-8.81,4.19-12.09-.51-16.54-6.18-10.76-13.72-28.84-14-38.93-.14-5.18,7.13-9.72,9.36-18.18,5.57-7.94-3.54-11-7.68-9.73-16.75,2.26-16.36-11.31-30.08-27.35-27.58-9.06,1.41-13-1.34-16.76-9.37-4-8.59-1.53-13.07,5.29-18.34,13.69-10.57,13.44-27.73.22-38.87-5.1-4.29-11.12-7.27-6.31-16.51,4.07-7.82,7.09-12.42,17.34-11.16,17.84,2.19,29.36-10.35,27.43-29-.87-8.39,2.19-12.09,9.65-15.17s12-2.61,17.44,4c12.38,15.05,28.23,14.33,41,.4,3.12-3.38,10.17-4.69,15.23-4.35,7.06.48,12,3.83,11.44,13.3-1.26,22,8.8,31.07,30.47,31.42,4.49.08,11,5,12.71,9.27s.47,12.38-2.72,15.54c-15,14.9-14.86,28.25.16,43.67,3.27,3.36,3.88,12.25,1.86,16.93-1.74,4-9.06,8.11-13.77,7.95C-1182.59,411.3-1194.53,421.92-1193.46,441.16ZM-1240,323.79a41.31,41.31,0,0,0-42.08,40.13c-.56,23.24,18.15,42.75,41.22,43,23.29.24,41.83-18.38,42-42.12C-1198.82,342.06-1216.9,324-1240,323.79Z" transform="translate(1384.66 -217.19)"/><path class="cls-1" d="M-1212,364.65c.21,16.36-12.13,29.06-28.32,29.16a28.78,28.78,0,0,1-28.74-29c.14-15.65,12-27.6,27.84-28C-1224.55,336.3-1212.24,348.06-1212,364.65Z" transform="translate(1384.66 -217.19)"/><path class="cls-1" d="M2617.18,218.11q590.37,0,1180.75.09c110.59.07,179.24,93.31,142.57,192.41-20.86,56.4-72.63,90.32-140.43,90.38q-418.91.38-837.8.15-763.58,0-1527.14,0c-108.55,0-176.83-90.1-143.94-188.85,19.9-59.73,72.1-94,145.23-94.17,147.28-.27,294.56,0,441.83,0Zm-1316,176.45c11.62,11.46,20.63,28.05,31.62,29.48,18.78,2.46,25.68,5.8,27.08,26.34,1.69,24.68,31.44,35.5,48.44,18,15.84-16.28,22.62-10.34,35.86,3.06,17.79,18,41.24,18.93,58.34-1.29,13.69-16.19,21.61-16.81,35.49-.93,19.12,21.88,39.63,19.44,61.79,1,6.58-5.47,25-6.48,30.82-1.36,23.1,20.46,42,19.7,64.92-.42,5.87-5.16,24.5-3.59,31.73,2,22.56,17.48,41.09,18.71,63.39-.69,6.22-5.4,25.09-5.12,31.66.36,22.11,18.41,42.69,21.2,61.6-.74,12.27-14.22,21-16.07,33.38-1.93,20.77,23.67,41.21,20.93,64.51,1.58,6.31-5.23,24.86-4.4,31.61,1.15,22.22,18.3,42.69,21.13,61.64-1.21,14.49-17.07,22.58-12.22,35.8,1.73,18.09,19.07,40.7,20,58.55-.44,13.32-15.25,21.88-17.51,35.92-1.3,19.14,22.1,39.25,20,61.38.89,6.47-5.59,25.69-6,31.92-.61,23.46,20.41,42.6,20,65.14-1.17,5.52-5.18,24.11-5.43,29.3-.36,22.46,21.89,41.6,21.08,65,1.34,6.18-5.21,24.65-4.32,31.42,1.19,22.36,18.21,40.86,18.85,63.27,0,6.64-5.59,25.44-6.48,31.51-1.23,23.23,20.07,42.29,20.52,64.89-.82,5.4-5.09,23.74-5,29.38.17,22.9,20.88,42.4,20,65.86.79,6.45-5.27,24.57-4.8,31.47.57,23.33,18.13,42.52,20.65,64.61-1.95,4.85-5,23.38-4.82,28.58.23,22.69,22,42.16,20,65.6,1.09,6.48-5.23,24.87-4.78,31.32.7,23.49,19.94,42.41,19.6,64.39-2.24,5.19-5.16,24.18-5.08,29.55.11,22.49,21.73,41.76,21,65.29,1.59,6.41-5.28,24.71-4.93,31.32.46,22,18,40.26,20.24,62.74.61,6.62-5.77,26.07-7.15,31.68-1.95,23.16,21.43,42.39,19.74,65.72.46,6.13-5.08,24.19-3.67,31.3,1.84,22.31,17.27,40.59,19.1,62.56-.91,6.11-5.56,25.29-5.83,31.61-.46,23.61,20.08,42.84,19.21,65.27-1.6,5.48-5.08,23.82-5.11,29.1,0,22.54,21.7,41.81,20.91,65.34,1.38,6.37-5.28,25.18-4.6,31.72,1,22.16,19,40.44,18.39,62.66.25,6.84-5.58,25.54-6.9,31.26-1.76,22.95,20.59,42,20.92,64.89.07,5.8-5.28,22.68-5.54,29.82-.92,23.77,15.37,43.84,8.22,52.28-18.52,3-9.46,14.14-20,23.76-23,25.87-8.07,32.52-28.66,17.21-52.47-4.51-7-3.13-22.55,1.83-30,14.9-22.46,6.11-43.55-20.92-50.43-8.81-2.24-19.65-12.27-22.1-20.87-8-28.13-26.13-35.83-50.87-22.41-8.29,4.5-25.09,2.73-32.85-3.07-21.28-15.92-40.95-19.41-58.95,1.25-13,15-22,18-36.06,1.54-19.1-22.34-41.36-22.87-60.66-.51-13.82,16-22.08,14.73-35.82-.74-19-21.42-39.67-19.72-61.18.82-5.7,5.45-24.93,5.37-31.25,0-23.28-19.85-42.46-20.67-65.11.91-5.54,5.28-24.35,5.73-29.6.67-24-23.09-43.73-25.36-66.41,1.74-3.8,4.53-23.45,2.84-29.42-2.75-22.82-21.41-41.88-20.32-64.84,0-6.05,5.34-25.51,4.81-31.56-.82-21.75-20.22-42.32-22-61.06,0-14.14,16.61-22.71,14.55-36-.13-19.7-21.78-39.65-19.48-61.41.36-6,5.48-25.7,5.27-31.8-.31-21.81-20-42.83-22.25-61.42-.23-14.17,16.81-22.81,15.51-35.61.28-18.12-21.58-40-20.61-57.91-1.78-14.83,15.58-23,19-38.54.52-17.18-20.42-40.24-20-57.74.45-13.32,15.59-22.18,17.29-35.93,1.47-19.15-22-40.88-22.74-60.21-.47-13.53,15.6-22.29,14.93-36-.54-19.17-21.64-39.58-19.67-61.15.72-5.88,5.57-25.42,5.59-31.81.12-23.36-20-42.39-21.61-64.8,1.31-5.13,5.24-24.48,5.58-29.37.53-23.63-24.46-43.33-24.84-66.5.65-4.32,4.76-23.58,3.38-29.57-2.12-23-21.11-42.15-21.89-64.72.75-5.37,5.38-25,6.08-29.55,1.13-23.22-25.43-42.86-24.58-66.31-.38-4.9,5-24.21,4.79-29.23-.41-22.16-22.92-41.23-21.42-64.7-1.94-6.61,5.48-25.4,5.75-31.76.36-23.13-19.64-42-21.58-64.3,1.18-5.21,5.32-24.62,6-29.29,1-23.62-25-43.55-23.87-67.19,0-4.93,5-24,4.06-29.76-1.36-22.56-21.16-41.29-21.8-64.09-.12-5.57,5.3-25,4.4-31.53-1.22-21.88-18.83-42-22.36-61.39.25-13.55,15.79-22.47,15.38-36.1-.2-19.22-21.95-39.48-19.94-61.23.09-6.07,5.59-25.46,6.2-31.29.9-23-20.88-41.89-21.14-64.9,0-5.77,5.29-25.17,4.54-31.4-1.09-21.92-19.79-39.93-19.3-62.2-.61-6.84,5.74-24.1,6.35-32.38,1.74-24.47-13.61-43.3-5.46-51.22,22.65-2.41,8.53-13.26,18.23-22.14,20.75-27.55,7.83-34.64,27.1-19.2,51.1,4.76,7.39,2.3,20.75.18,30.75C1315.87,381.07,1308.77,385.69,1301.13,394.56Z" transform="translate(1384.66 -217.19)"/><path class="cls-1" d="M3854.84,435.29c3,8.69-2.67,12.29-10.8,16.15-8.82,4.19-12.09-.51-16.54-6.17-10.77-13.72-28.84-14-38.94-.14-5.18,7.12-9.71,9.35-18.17,5.57-7.94-3.55-11-7.69-9.73-16.76,2.25-16.35-11.31-30.07-27.35-27.58-9.06,1.41-13-1.34-16.76-9.36-4-8.59-1.53-13.08,5.29-18.34,13.69-10.58,13.44-27.74.21-38.87-5.09-4.29-11.11-7.28-6.3-16.51,4.07-7.82,7.09-12.42,17.34-11.17,17.84,2.19,29.35-10.35,27.43-28.95-.87-8.4,2.19-12.1,9.64-15.18s12.05-2.61,17.45,4c12.37,15.05,28.23,14.33,41,.41,3.11-3.38,10.17-4.7,15.23-4.35,7.06.48,12,3.82,11.43,13.29-1.25,22,8.81,31.08,30.48,31.43,4.48.07,11,5,12.71,9.27s.46,12.37-2.72,15.54c-15,14.89-14.86,28.24.15,43.67,3.28,3.36,3.88,12.25,1.86,16.93-1.73,4-9.05,8.11-13.76,7.94C3865.71,405.44,3853.77,416.06,3854.84,435.29Zm-46.58-117.37a41.32,41.32,0,0,0-42.07,40.13c-.56,23.25,18.14,42.76,41.21,43,23.3.23,41.84-18.38,42-42.12C3849.48,336.19,3831.39,318.15,3808.26,317.92Z" transform="translate(1384.66 -217.19)"/><path class="cls-1" d="M3836.27,358.79c.2,16.35-12.14,29-28.32,29.15a28.76,28.76,0,0,1-28.74-29c.14-15.64,12-27.6,27.84-28C3823.75,330.43,3836.06,342.19,3836.27,358.79Z" transform="translate(1384.66 -217.19)"/><path class="cls-1" d="M1474.09,434.69c3,8.69-2.67,12.29-10.79,16.15-8.82,4.19-12.1-.51-16.54-6.18-10.77-13.72-28.85-14-38.94-.14-5.18,7.13-9.71,9.36-18.18,5.58-7.94-3.55-11-7.69-9.73-16.76,2.26-16.36-11.31-30.08-27.35-27.58-9,1.41-13-1.34-16.75-9.37-4-8.59-1.54-13.07,5.28-18.34,13.7-10.57,13.44-27.73.22-38.86-5.1-4.29-11.12-7.28-6.31-16.52,4.08-7.82,7.09-12.42,17.35-11.16,17.83,2.19,29.35-10.35,27.42-29-.86-8.39,2.19-12.09,9.65-15.17s12-2.61,17.44,4c12.38,15.05,28.23,14.33,41.05.41,3.11-3.39,10.16-4.7,15.22-4.36,7.06.49,12,3.83,11.44,13.3-1.26,22.05,8.81,31.07,30.48,31.43,4.48.07,11,5,12.7,9.27s.47,12.37-2.72,15.53c-15,14.9-14.86,28.25.16,43.67,3.27,3.36,3.88,12.26,1.86,16.94-1.74,4-9.06,8.1-13.77,7.94C1485,404.83,1473,415.46,1474.09,434.69Zm-46.57-117.37a41.31,41.31,0,0,0-42.08,40.13c-.55,23.25,18.15,42.75,41.22,43,23.29.24,41.83-18.37,42-42.12C1468.74,335.59,1450.65,317.55,1427.52,317.32Z" transform="translate(1384.66 -217.19)"/><path class="cls-1" d="M1455.52,358.18c.21,16.36-12.13,29.06-28.32,29.16a28.78,28.78,0,0,1-28.74-29c.14-15.65,12-27.6,27.85-28C1443,329.83,1455.32,341.59,1455.52,358.18Z" transform="translate(1384.66 -217.19)"/><path class="cls-1" d="M5284.73,217.3q590.37,0,1180.75.1c110.59.07,179.24,93.31,142.57,192.41-20.86,56.4-72.63,90.31-140.43,90.37q-418.9.39-837.8.15-763.57,0-1527.14,0c-108.55,0-176.83-90.1-143.94-188.85,19.9-59.73,72.1-94,145.24-94.17,147.27-.27,294.55,0,441.82,0Q4915.26,217.33,5284.73,217.3Zm-1316,176.46c11.62,11.46,20.63,28,31.62,29.48,18.78,2.46,25.68,5.8,27.08,26.34,1.69,24.68,31.44,35.49,48.44,18,15.84-16.28,22.62-10.34,35.86,3.06,17.79,18,41.24,18.93,58.35-1.3,13.69-16.18,21.6-16.81,35.48-.93,19.13,21.89,39.63,19.45,61.8,1,6.58-5.47,25-6.48,30.81-1.36,23.1,20.46,42.05,19.7,64.92-.42,5.87-5.16,24.5-3.59,31.74,2,22.55,17.48,41.09,18.7,63.38-.69,6.22-5.41,25.1-5.12,31.67.35,22.1,18.42,42.68,21.2,61.6-.73,12.26-14.22,20.95-16.07,33.37-1.93,20.77,23.67,41.21,20.93,64.52,1.58,6.3-5.24,24.85-4.41,31.6,1.15,22.23,18.29,42.69,21.12,61.64-1.21,14.49-17.07,22.58-12.22,35.81,1.73,18.08,19.07,40.69,20,58.54-.44,13.32-15.26,21.88-17.51,35.92-1.3,19.15,22.1,39.26,20,61.38.89,6.47-5.59,25.69-6,31.92-.61,23.46,20.41,42.6,20,65.14-1.18,5.52-5.17,24.11-5.42,29.31-.36,22.46,21.9,41.59,21.08,65,1.35,6.18-5.21,24.65-4.33,31.42,1.19,22.36,18.21,40.86,18.84,63.27,0,6.64-5.58,25.45-6.47,31.52-1.23,23.22,20.08,42.29,20.53,64.88-.81,5.4-5.1,23.75-5,29.38.16,22.91,20.89,42.41,20,65.87.8,6.45-5.27,24.56-4.8,31.46.56,23.33,18.14,42.52,20.66,64.62-1.95,4.85-5,23.38-4.81,28.57.23,22.69,22.05,42.16,20,65.6,1.09,6.48-5.22,24.87-4.77,31.32.71,23.49,19.94,42.41,19.6,64.39-2.25,5.19-5.15,24.18-5.08,29.56.12,22.49,21.73,41.75,21,65.29,1.59,6.4-5.28,24.7-4.94,31.32.46,22,18,40.26,20.24,62.74.61,6.61-5.78,26.06-7.16,31.68-2,23.15,21.43,42.38,19.75,65.71.46,6.13-5.07,24.19-3.66,31.3,1.84,22.32,17.28,40.59,19.11,62.56-.9,6.11-5.56,25.3-5.84,31.62-.46,23.6,20.07,42.83,19.21,65.27-1.6,5.47-5.08,23.82-5.12,29.09,0,22.54,21.7,41.82,20.91,65.34,1.38,6.37-5.28,25.18-4.6,31.72,1,22.17,19,40.44,18.39,62.67.25,6.83-5.58,25.53-6.89,31.26-1.75,22.94,20.59,42,20.92,64.89.07,5.79-5.29,22.67-5.54,29.81-.92,23.77,15.37,43.84,8.22,52.28-18.53,3-9.45,14.14-20,23.76-23,25.87-8.07,32.52-28.66,17.21-52.47-4.51-7-3.13-22.56,1.83-30,14.9-22.45,6.11-43.54-20.92-50.42-8.81-2.24-19.64-12.28-22.1-20.87-8-28.13-26.13-35.83-50.87-22.41-8.28,4.5-25.09,2.73-32.85-3.07-21.28-15.92-40.94-19.41-58.94,1.24-13,15-22,18-36.06,1.55-19.11-22.34-41.36-22.87-60.67-.51-13.82,16-22.08,14.72-35.82-.74-19-21.42-39.67-19.72-61.17.82-5.7,5.44-24.93,5.37-31.26,0-23.28-19.84-42.46-20.67-65.1.92-5.54,5.28-24.35,5.73-29.61.66-24-23.08-43.72-25.35-66.41,1.74-3.8,4.54-23.45,2.85-29.41-2.74-22.83-21.41-41.89-20.32-64.85,0-6,5.35-25.5,4.82-31.56-.81-21.75-20.23-42.32-22-61.05,0-14.15,16.61-22.72,14.55-36-.13-19.7-21.79-39.65-19.48-61.41.36-6,5.48-25.7,5.27-31.79-.32-21.82-20-42.84-22.25-61.42-.22-14.18,16.8-22.82,15.51-35.62.27-18.12-21.57-40-20.6-57.91-1.78-14.83,15.59-23,19-38.54.53-17.18-20.42-40.24-20-57.74.44-13.32,15.59-22.18,17.3-35.93,1.48-19.15-22.05-40.88-22.75-60.21-.47-13.53,15.6-22.29,14.92-36-.54-19.18-21.65-39.59-19.68-61.16.72-5.88,5.56-25.42,5.59-31.81.12-23.35-20-42.39-21.61-64.8,1.31-5.13,5.24-24.48,5.58-29.37.52-23.63-24.46-43.33-24.84-66.49.65-4.33,4.76-23.59,3.38-29.58-2.11-23-21.11-42.15-21.9-64.72.75-5.36,5.38-25,6.08-29.55,1.12-23.22-25.43-42.85-24.57-66.31-.38-4.9,5.06-24.21,4.8-29.23-.4-22.16-22.93-41.22-21.42-64.7-1.94-6.61,5.48-25.4,5.75-31.76.35-23.13-19.64-42-21.57-64.3,1.18-5.21,5.32-24.61,6-29.29,1-23.62-25-43.55-23.87-67.19,0-4.93,5-24,4.06-29.76-1.35-22.56-21.17-41.28-21.8-64.09-.12-5.57,5.3-25,4.4-31.53-1.23-21.88-18.83-42-22.36-61.39.25-13.55,15.79-22.47,15.39-36.1-.19-19.22-21.95-39.48-19.94-61.22.09-6.07,5.59-25.46,6.2-31.3.9-23-20.88-41.89-21.14-64.9,0-5.77,5.29-25.17,4.53-31.4-1.09-21.91-19.8-39.92-19.31-62.2-.61-6.84,5.74-24.1,6.34-32.38,1.74-24.47-13.61-43.3-5.46-51.22,22.64-2.41,8.54-13.26,18.23-22.13,20.75-27.56,7.83-34.65,27.11-19.21,51.11,4.76,7.39,2.3,20.75.18,30.75C3983.42,380.26,3976.33,384.88,3968.68,393.76Z" transform="translate(1384.66 -217.19)"/><path class="cls-1" d="M6522.39,434.49c3,8.69-2.67,12.29-10.8,16.15-8.81,4.19-12.09-.51-16.54-6.18-10.76-13.72-28.84-14-38.93-.13-5.18,7.12-9.72,9.35-18.18,5.57-7.94-3.55-11-7.69-9.73-16.76,2.26-16.36-11.31-30.08-27.35-27.58-9.06,1.41-13-1.34-16.76-9.37-4-8.59-1.53-13.07,5.29-18.34,13.69-10.57,13.44-27.73.22-38.86-5.1-4.29-11.12-7.28-6.31-16.52,4.07-7.82,7.09-12.42,17.34-11.16,17.84,2.19,29.36-10.35,27.43-28.95-.87-8.4,2.19-12.1,9.65-15.18s12-2.61,17.44,4c12.37,15.05,28.23,14.33,41,.41,3.12-3.39,10.17-4.7,15.23-4.36,7.06.49,12,3.83,11.44,13.3-1.26,22.05,8.8,31.07,30.47,31.43,4.49.07,11,5,12.71,9.27s.47,12.37-2.72,15.53c-15,14.9-14.86,28.25.16,43.67,3.27,3.37,3.88,12.26,1.86,16.94-1.74,4-9.06,8.11-13.77,7.94C6533.26,404.63,6521.32,415.26,6522.39,434.49Zm-46.57-117.37a41.31,41.31,0,0,0-42.08,40.13c-.56,23.25,18.15,42.75,41.22,43,23.29.23,41.83-18.38,42-42.13C6517,335.39,6499,317.35,6475.82,317.12Z" transform="translate(1384.66 -217.19)"/><path class="cls-1" d="M6503.82,358c.21,16.35-12.14,29.05-28.32,29.15a28.77,28.77,0,0,1-28.74-29c.14-15.65,12-27.6,27.84-28C6491.3,329.63,6503.61,341.39,6503.82,358Z" transform="translate(1384.66 -217.19)"/><path class="cls-1" d="M4141.65,433.88c3,8.69-2.67,12.3-10.8,16.16-8.82,4.18-12.1-.51-16.54-6.18-10.77-13.72-28.85-14-38.94-.14-5.18,7.13-9.71,9.35-18.17,5.57-7.95-3.55-11-7.69-9.74-16.76,2.26-16.35-11.3-30.07-27.34-27.57-9.06,1.41-13.06-1.34-16.76-9.37-4-8.59-1.54-13.07,5.29-18.34,13.69-10.58,13.43-27.74.21-38.87-5.1-4.29-11.12-7.27-6.3-16.51,4.07-7.82,7.09-12.42,17.34-11.16,17.83,2.19,29.35-10.35,27.43-29-.87-8.4,2.18-12.1,9.64-15.17s12-2.61,17.44,4c12.38,15,28.23,14.33,41.05.4,3.11-3.38,10.16-4.69,15.22-4.35,7.06.48,12,3.83,11.44,13.29-1.26,22.06,8.81,31.08,30.48,31.43,4.48.08,11,5,12.71,9.27s.46,12.38-2.73,15.54c-15,14.9-14.86,28.24.16,43.67,3.27,3.36,3.88,12.25,1.86,16.93-1.74,4-9.06,8.11-13.76,7.95C4152.52,404,4140.58,414.65,4141.65,433.88Zm-46.58-117.37A41.32,41.32,0,0,0,4053,356.65c-.55,23.24,18.15,42.75,41.22,43,23.3.24,41.84-18.38,42-42.12C4136.29,334.78,4118.2,316.74,4095.07,316.51Z" transform="translate(1384.66 -217.19)"/><path class="cls-1" d="M4123.08,357.38c.2,16.35-12.14,29.05-28.33,29.15a28.76,28.76,0,0,1-28.74-29c.14-15.64,12-27.6,27.85-28C4110.56,329,4122.87,340.79,4123.08,357.38Z" transform="translate(1384.66 -217.19)"/><path class="cls-1" d="M7952.28,218q590.39,0,1180.76.1c110.58.07,179.23,93.31,142.57,192.41-20.87,56.4-72.64,90.31-140.44,90.38q-418.89.38-837.8.14-763.56,0-1527.13,0c-108.56,0-176.84-90.1-143.94-188.85,19.9-59.73,72.09-94,145.23-94.17,147.27-.27,294.55,0,441.83,0Q7582.81,218,7952.28,218ZM6636.23,394.44c11.62,11.46,20.63,28,31.63,29.48,18.77,2.46,25.67,5.8,27.08,26.34,1.68,24.68,31.43,35.49,48.43,18,15.84-16.28,22.62-10.34,35.87,3.06,17.78,18,41.23,18.93,58.34-1.3,13.69-16.18,21.6-16.81,35.48-.93,19.13,21.89,39.63,19.45,61.8,1,6.58-5.47,25-6.48,30.82-1.36,23.09,20.46,42,19.7,64.92-.42,5.87-5.16,24.49-3.59,31.73,2,22.55,17.48,41.09,18.7,63.38-.69,6.22-5.41,25.1-5.12,31.67.35,22.1,18.42,42.68,21.2,61.6-.73,12.26-14.22,21-16.07,33.37-1.93,20.77,23.67,41.22,20.93,64.52,1.58,6.31-5.24,24.85-4.4,31.6,1.15,22.23,18.29,42.69,21.12,61.64-1.21,14.49-17.07,22.58-12.22,35.81,1.73,18.08,19.07,40.69,20,58.55-.44,13.31-15.26,21.87-17.51,35.91-1.3,19.15,22.1,39.26,20,61.38.89,6.47-5.59,25.69-6,31.92-.61,23.46,20.41,42.6,20,65.14-1.18,5.52-5.17,24.11-5.42,29.31-.36,22.46,21.9,41.59,21.08,65,1.35,6.18-5.21,24.65-4.33,31.43,1.19,22.35,18.21,40.85,18.84,63.26,0,6.64-5.58,25.45-6.47,31.52-1.23,23.22,20.08,42.29,20.53,64.88-.81,5.4-5.09,23.75-5,29.38.16,22.91,20.89,42.41,20,65.87.8,6.45-5.27,24.56-4.8,31.47.56,23.32,18.14,42.51,20.66,64.61-1.95,4.85-5,23.38-4.81,28.57.23,22.7,22.05,42.16,20,65.6,1.09,6.48-5.22,24.87-4.77,31.32.71,23.49,19.94,42.41,19.6,64.39-2.25,5.19-5.15,24.18-5.07,29.56.12,22.49,21.73,41.76,21,65.29,1.59,6.4-5.28,24.71-4.94,31.32.46,22,18,40.26,20.24,62.74.61,6.61-5.78,26.06-7.16,31.68-2,23.16,21.43,42.39,19.75,65.71.46,6.14-5.07,24.19-3.66,31.3,1.84,22.32,17.28,40.59,19.11,62.56-.9,6.11-5.56,25.3-5.84,31.62-.46,23.6,20.07,42.83,19.21,65.27-1.6,5.47-5.08,23.82-5.12,29.09,0,22.55,21.7,41.82,20.91,65.35,1.38,6.36-5.28,25.17-4.6,31.71,1,22.17,19,40.44,18.4,62.67.25,6.83-5.58,25.53-6.89,31.26-1.75,23,20.59,42,20.92,64.89.07,5.79-5.29,22.67-5.54,29.81-.92,23.77,15.37,43.84,8.22,52.28-18.53,3-9.45,14.14-20,23.76-23,25.87-8.07,32.52-28.66,17.21-52.47-4.51-7-3.13-22.56,1.83-30,14.9-22.45,6.12-43.54-20.92-50.42-8.81-2.24-19.64-12.28-22.1-20.87-8-28.13-26.13-35.83-50.87-22.41-8.28,4.5-25.09,2.73-32.84-3.07-21.29-15.92-41-19.41-59,1.24-13,15-22,18-36.06,1.55-19.11-22.34-41.36-22.87-60.67-.51-13.82,16-22.08,14.72-35.82-.74-19-21.42-39.67-19.72-61.17.82-5.7,5.44-24.93,5.37-31.26,0-23.28-19.84-42.46-20.67-65.1.92-5.54,5.28-24.35,5.73-29.61.67-24-23.09-43.72-25.36-66.41,1.73-3.8,4.54-23.45,2.85-29.41-2.74-22.82-21.41-41.89-20.32-64.85,0-6,5.35-25.5,4.82-31.55-.81-21.76-20.23-42.33-22-61.06,0-14.14,16.61-22.72,14.55-36-.13-19.7-21.79-39.64-19.48-61.4.36-6,5.48-25.7,5.27-31.8-.31-21.82-20-42.83-22.26-61.42-.23-14.18,16.8-22.82,15.51-35.61.28-18.12-21.58-40-20.61-57.91-1.79-14.84,15.59-23,19-38.55.53-17.18-20.42-40.24-20-57.74.44-13.31,15.59-22.18,17.3-35.93,1.48-19.15-22-40.88-22.75-60.2-.47-13.54,15.6-22.3,14.92-36-.54-19.18-21.65-39.59-19.68-61.16.72-5.88,5.56-25.42,5.59-31.81.12-23.35-20-42.39-21.61-64.8,1.31-5.12,5.24-24.48,5.58-29.37.52-23.63-24.45-43.33-24.84-66.49.65-4.33,4.76-23.59,3.38-29.58-2.11-23-21.11-42.15-21.9-64.72.75-5.36,5.38-25,6.08-29.55,1.12-23.22-25.43-42.85-24.57-66.31-.37-4.9,5-24.2,4.79-29.23-.41-22.16-22.92-41.22-21.42-64.7-1.94-6.6,5.48-25.4,5.75-31.76.35-23.13-19.64-42-21.57-64.3,1.18-5.21,5.32-24.61,6-29.29,1-23.62-25-43.55-23.87-67.19,0-4.93,5-24,4.06-29.75-1.35-22.57-21.17-41.29-21.8-64.1-.12-5.57,5.3-25,4.4-31.53-1.23-21.88-18.83-42-22.36-61.38.25-13.55,15.79-22.48,15.39-36.11-.19-19.21-21.95-39.48-19.94-61.22.09-6.07,5.59-25.46,6.2-31.29.9-23-20.88-41.89-21.14-64.91,0-5.76,5.29-25.17,4.53-31.4-1.09-21.91-19.79-39.92-19.3-62.2-.61-6.84,5.74-24.09,6.35-32.37,1.74-24.48-13.61-43.31-5.46-51.23,22.64-2.41,8.54-13.26,18.23-22.13,20.75-27.56,7.83-34.64,27.11-19.2,51.11,4.75,7.39,2.29,20.75.17,30.75C6651,380.94,6643.88,385.56,6636.23,394.44Z" transform="translate(1384.66 -217.19)"/><path class="cls-1" d="M9189.94,435.17c3,8.69-2.67,12.29-10.8,16.15-8.81,4.19-12.09-.51-16.53-6.17-10.77-13.73-28.85-14-38.94-.14-5.18,7.12-9.71,9.35-18.18,5.57-7.94-3.55-11-7.69-9.73-16.76,2.26-16.36-11.31-30.08-27.35-27.58-9.06,1.41-13-1.34-16.75-9.36-4-8.6-1.54-13.08,5.28-18.35,13.7-10.57,13.44-27.73.22-38.86-5.1-4.29-11.12-7.28-6.31-16.51,4.08-7.83,7.09-12.43,17.35-11.17,17.83,2.19,29.35-10.35,27.42-28.95-.86-8.4,2.19-12.1,9.65-15.18s12-2.61,17.44,4c12.38,15.05,28.23,14.33,41.05.41,3.11-3.39,10.16-4.7,15.22-4.35,7.06.48,12,3.82,11.44,13.29-1.26,22.05,8.81,31.07,30.48,31.43,4.48.07,11,5,12.7,9.27s.47,12.37-2.72,15.53c-15,14.9-14.86,28.25.16,43.67,3.27,3.37,3.88,12.26,1.86,16.94-1.74,4-9.06,8.11-13.77,7.94C9200.81,405.31,9188.87,415.94,9189.94,435.17ZM9143.37,317.8a41.31,41.31,0,0,0-42.08,40.13c-.55,23.25,18.15,42.75,41.22,43,23.29.23,41.83-18.38,42-42.13C9184.59,336.07,9166.5,318,9143.37,317.8Z" transform="translate(1384.66 -217.19)"/><path class="cls-1" d="M9171.37,358.67c.21,16.35-12.13,29.05-28.32,29.15a28.78,28.78,0,0,1-28.74-29c.14-15.64,12-27.6,27.85-28C9158.85,330.31,9171.17,342.07,9171.37,358.67Z" transform="translate(1384.66 -217.19)"/><path class="cls-1" d="M6809.2,434.57c3,8.68-2.67,12.29-10.8,16.15-8.82,4.19-12.09-.51-16.54-6.18-10.77-13.72-28.84-14-38.94-.14-5.18,7.13-9.71,9.35-18.17,5.57-7.95-3.54-11-7.69-9.74-16.76,2.26-16.35-11.3-30.07-27.34-27.57-9.06,1.41-13.05-1.34-16.76-9.37-4-8.59-1.53-13.07,5.29-18.34,13.69-10.58,13.44-27.73.21-38.87-5.09-4.29-11.11-7.27-6.3-16.51,4.07-7.82,7.09-12.42,17.34-11.16,17.84,2.19,29.35-10.35,27.43-29-.87-8.4,2.19-12.1,9.64-15.17s12-2.61,17.45,4c12.37,15,28.23,14.33,41,.4,3.11-3.38,10.16-4.69,15.23-4.35,7.06.48,12,3.83,11.43,13.29-1.25,22.06,8.81,31.08,30.48,31.43,4.48.08,11,5,12.71,9.27s.46,12.38-2.72,15.54c-15,14.9-14.86,28.24.15,43.67,3.27,3.36,3.88,12.25,1.86,16.93-1.73,4-9.06,8.11-13.76,8C6820.07,404.71,6808.13,415.33,6809.2,434.57ZM6762.62,317.2a41.31,41.31,0,0,0-42.07,40.13c-.56,23.24,18.14,42.75,41.21,43,23.3.24,41.84-18.38,42-42.12C6803.84,335.47,6785.75,317.42,6762.62,317.2Z" transform="translate(1384.66 -217.19)"/><path class="cls-1" d="M6790.63,358.06c.2,16.35-12.14,29.06-28.32,29.15a28.75,28.75,0,0,1-28.74-29c.14-15.64,12-27.6,27.84-28C6778.11,329.71,6790.42,341.47,6790.63,358.06Z" transform="translate(1384.66 -217.19)"/><rect class="cls-1" x="3102.85" y="290.49" width="52.09" height="1532.32"/><rect class="cls-1" x="1718.13" y="1784.12" width="56.28" height="455.49" transform="translate(1119.07 3540.94) rotate(-90)"/><rect class="cls-1" x="4867.88" y="290.49" width="52.09" height="1532.32"/><rect class="cls-1" x="3483.16" y="1784.12" width="56.28" height="455.49" transform="translate(2884.1 5305.97) rotate(-90)"/><rect class="cls-1" x="5758.28" y="290.49" width="52.09" height="1532.32"/><rect class="cls-1" x="4373.56" y="1784.12" width="56.28" height="455.49" transform="translate(3774.5 6196.37) rotate(-90)"/><rect class="cls-1" x="7523.31" y="290.49" width="52.09" height="1532.32"/><rect class="cls-1" x="6138.59" y="1784.12" width="56.28" height="455.49" transform="translate(5539.53 7961.4) rotate(-90)"/><rect class="cls-1" x="8425.83" y="290.49" width="52.09" height="1532.32"/><rect class="cls-1" x="7041.12" y="1784.12" width="56.28" height="455.49" transform="translate(6442.06 8863.92) rotate(-90)"/><rect class="cls-1" x="10190.86" y="290.49" width="52.09" height="1532.32"/><rect class="cls-1" x="8806.14" y="1784.12" width="56.28" height="455.49" transform="translate(8207.09 10628.95) rotate(-90)"/><rect class="cls-1" x="447.42" y="290.49" width="52.09" height="1532.32"/><rect class="cls-1" x="-937.3" y="1784.12" width="56.28" height="455.49" transform="translate(-1536.36 885.51) rotate(-90)"/><rect class="cls-1" x="2212.45" y="290.49" width="52.09" height="1532.32"/><rect class="cls-1" x="827.73" y="1784.12" width="56.28" height="455.49" transform="translate(228.67 2650.54) rotate(-90)"/></svg>