<svg id="Layer_2" data-name="Layer 2" xmlns="http://www.w3.org/2000/svg" viewBox="0 0 891.34 571.11"><defs><style>.cls-1{fill:#27668d;}.cls-2{fill:#28c79b;}.cls-3{fill:#fcf462;}.cls-4{fill:none;stroke-width:3px;}.cls-4,.cls-5{stroke:#f8f1f1;stroke-miterlimit:10;}.cls-5{fill:#f8f1f1;}</style></defs><title>home page tree</title><path class="cls-1" d="M608.81,781.4l6.43,2c-5.25-.47-10.62-.39-15.22-3.75a7.71,7.71,0,0,0,.73,7.68c1.08,1.59,2,3.32,2.92,5l-.53.33c-1.76-2.62-3.55-5.22-5.24-7.87a2.4,2.4,0,0,1-.2-1.71c1.61-5.64-.75-9.54-5.49-12.61-3.05,5.28,1,9.83,1.29,14.75-3-2.55-5-5.71-4.82-9.62a48.67,48.67,0,0,1,1.8-10,18.65,18.65,0,0,0-3.72-17.51c-3.36,1.42-6.77,2.78-10.09,4.31a5.52,5.52,0,0,0-3.18,5.37c0,2-.19,4-.16,6.07.06,4.8-2.3,8.11-6.28,10.47a11.25,11.25,0,0,1-2.14,1.08c2.6-4.17,5.94-8.11,3.29-13.56a27.14,27.14,0,0,0-6.84,5.76c-2.46,3-2.38,6.2-1.7,9.85.43,2.32,1.53,4.1,2.38,6.12a11.36,11.36,0,0,1,.62,4.66c0,1.89-.49,3.77-.72,5.66-.2,1.61.54,2.73,1.65,3.91,2.39,2.55,5.08,2.87,8.23,1.93a12.1,12.1,0,0,1,3.88-.45,4.32,4.32,0,0,1,4.2,4.4c-2.06-3.6-2.79-3.93-7.81-3.06-1.41.24-2.8.56-4.8,1l5.14,3.06c-3-1.13-6-2.09-8.09-4.81-1.15-1.47-3.09-2.33-4.79-3.55-.25.16-.66.39-1,.65-4.26,3-4.5,3.75-3,8.8a36.71,36.71,0,0,1,.72,4.34l-.61.1c-.56-3.17-1.32-6.33-1.56-9.53-.07-1,1.06-2.44,2-3.09,3.23-2.17,5-5.06,4.46-8.89a47.54,47.54,0,0,0-2-6.89l-.72-.09-7.56,6.68a13.84,13.84,0,0,1,4.25-6.22c3-2.83,3.42-5.5,1.9-9-4.22.5-8.32,1.28-12.44,1.4s-8.15-.43-12.57-.71c3.67-1.38,7.37-.74,11-1.28a11.75,11.75,0,0,0-9.36-4.5,43,43,0,0,1-5-.61l.05-.54c3.35.17,6.7.27,10,.56.73.06,1.44.75,2.11,1.21,1.57,1.09,3.1,2.21,4.65,3.31a1.78,1.78,0,0,0,.64.3c3.58.77,9.86-2,11.46-5.31,2.32-4.79,6.08-8,10.64-10.45a4.27,4.27,0,0,0,1.79-2c1.11-2.72,3.24-4.36,5.59-5.82s4.5-2.71,6.08-5.35c-2-1.3-3.89-2.87-6-3.73a8.7,8.7,0,0,0-4.83,0,9.33,9.33,0,0,0-3.76,2c-4,3.26-8.66,4.62-13.49,5.76a12.53,12.53,0,0,0-6.61,3.32c-1.31,1.39-1.7,5.53-.29,6.84,1.67,1.55,3.48,3.22,6.1,2,2.77-1.28,5,.27,7.44,1.21-2.75-.29-5.5-1.94-8.28.07l5,2.42c-4.25-1.25-8.76-1.87-12.12-5.19-1.76,1.66-2.62,3.39-1.57,5.75a15.33,15.33,0,0,1,.68,3.15l-.44.11a51.34,51.34,0,0,1-2-5.24,3.69,3.69,0,0,1,.71-2.38c.91-1.53,2.13-2.92,1.13-5a3.86,3.86,0,0,0-.82.63c-2.64,3.42-6.33,4.66-10.43,5.05-4.42.42-8.19,2-10.65,6.09a5.7,5.7,0,0,1,3.13-5.07,35,35,0,0,1,6.9-2.8c3.46-1,6-3,7-6.27,1.42-4.71,4.74-7.41,8.76-9.59,2-1.1,4.09-2.14,6.11-3.19-1.08-2.87-1.36-3-3.79-1.73a54.31,54.31,0,0,1-30.53,6.38,2.26,2.26,0,0,0-1.61.86c-1.12,1.38-2.08,2.9-3.17,4.31a12.53,12.53,0,0,0-.34,14.48,7.65,7.65,0,0,1,1.84,4.51c0,1,.9,2,1.55,2.94a7.93,7.93,0,0,1,1.44,7.08,14.68,14.68,0,0,0-.29,1.76c-.92,6.22-.61,5.52,4.24,9.16.92.68,2.83.13,4.26,0,1.24-.11,2.45-.52,3.69-.64,3.16-.3,4.94,1.17,5.51,4.44-.09,0-.23,0-.26-.08-1.91-3.36-2.76-3.82-6.59-3.24-1.8.27-3.57.73-5.79,1.19l5,3.05c-5.6-1-8.25-6-12.93-8.33,0,0-.2.18-.43.34-4.95,3.66-4.92,3.65-3.36,9.75a9.21,9.21,0,0,1,.07,3.81c-.58-2.54-1.13-5.09-1.75-7.63a4.48,4.48,0,0,1,1.76-4.89c.47-.37.94-.73,1.4-1.11,4.2-3.46,4.8-9.08,1.24-13.75-.9,2.85-1.75,5.52-2.59,8.19l-.51-.06c.19-1.87.33-3.75.61-5.61a15,15,0,0,1,.79-2.92,8.42,8.42,0,0,0-1.08-7.67c-.51-.79-1-1.59-1.65-2.6-5,6.65-12.93,8.1-20,11.5,2.23-3.16,6-3.8,8.56-6-3.23-2.08-6.54-2.52-10.11-.67a18.48,18.48,0,0,1-4.08,1l-.14-.43c2.84-1.16,5.65-2.39,8.52-3.44a4.1,4.1,0,0,1,2.22.29c.62.17,1.17.71,1.79.78,1.74.2,3.45,1.81,5.24.34,2.74-2.25,6.36-3.89,6.05-8.38a15.35,15.35,0,0,1,.11-3.39c.35-2.23.85-4.44,1.28-6.55-2.53.63-5.54,1.54-8.62,2.08-5.32.94-10.67,1.71-16,2.4a2.75,2.75,0,0,0-2.24,1.32,44.41,44.41,0,0,0-7.07,17.4c-.26,1.51,0,2.52,1.33,3.3a22.26,22.26,0,0,1,4,2.64c2.28,2.17,2.67,5.1,2.67,8.08a15,15,0,0,1-.25,2.31c-.53,3.55-1.08,7.09-1.54,10.12a12.23,12.23,0,0,1-.38-7.88c.74-3,1-6-.84-8.61a63.07,63.07,0,0,0-4.16-4.89l-29.52,16.16a5.6,5.6,0,0,1,2.76-3c3-1.8,6-3.56,9-5.8-3.26-.65-6.5-1.47-9.79-1.9a8.61,8.61,0,0,0-3.93.88c-2.69,1-5.31,2.25-8.09,3.06,4.9-1.37,8.64-5.93,14.32-5.19,3.07.4,6.13.87,9.21,1.15a5.14,5.14,0,0,0,2.75-.66c2.33-1.3,4.56-2.78,6.85-4.16,1.39-.83,2.45-1.75,2.48-3.6a34.55,34.55,0,0,1,6.06-19.67,4.65,4.65,0,0,0,.33-.89c-6.15.3-12.18-.25-17.9,2.06a8,8,0,0,0-2.73,1.64,15.67,15.67,0,0,1-8.36,4.13c-6.41,1.37-12.77,2.87-18.64,6-2.42,1.28-4.84,2.54-7.28,3.79a2,2,0,0,1-1.55.12,16.67,16.67,0,0,1,1.56-1.68,32,32,0,0,1,12-6.43,41.38,41.38,0,0,0,14-6.89c6.47-4.86,13.95-7.08,21.86-8.11l1.75-.24a12.13,12.13,0,0,0-8.94-3.72c-3.93.1-7.86.1-11.78,0a26.5,26.5,0,0,1-4.59-.93l.07-.44c.43,0,.87,0,1.3,0a53.85,53.85,0,0,0,13.89-.34,34.1,34.1,0,0,1,8.2-.24,7.52,7.52,0,0,1,4.43,2c3.48,3.62,7.55,3.86,12,2.68a73,73,0,0,0,10.4-3.14,44.74,44.74,0,0,1,17.86-3.59,44.29,44.29,0,0,0,14.84-2.83c8.32-3.05,13.2-8.93,15.52-17.5A211.46,211.46,0,0,0,554,657.71c-.15-8.29-1.56-16.46-2.63-24.67-1-7.67-5.81-11.39-12.05-14.1a96.08,96.08,0,0,0-27.54-7.18c-4.62-.53-9.22-1.11-13.84-1.59a2.68,2.68,0,0,0-1.9.55c-5.43,5.21-12.13,7.87-19.28,9.57a104,104,0,0,1-26.63,2.31c-1.07,0-2.13,0-3.28,0-2.43,7.52-8.66,10.08-15.61,11.51-6.29,1.29-12.66,1-19,.26,3.17-.27,6.36-.42,9.51-.82,5.1-.64,10.11-1.73,14.54-4.54a10.07,10.07,0,0,0,5-6.77,6,6,0,0,0-1.74-.34c-3.11.34-5.2-1.47-7.45-3.2-7.8-6-16.33-10.44-26.26-11.7A37,37,0,0,0,389,608.47c-.39.14-.79.23-1.18.34,0,0-.1,0-.3-.17,10.33-6.82,20.7-4.55,31.08-.55,2.53-3.23,2.55-6.69.06-10.78a36.64,36.64,0,0,0-9.22-9.61,10.05,10.05,0,0,1-1.78-1.61A42.27,42.27,0,0,1,419,593.68c2.61,2.5,5,5.23,5.52,8.94a19.81,19.81,0,0,1-.62,5.94c-.09.51-.87.89-1.36,1.35A56.52,56.52,0,0,0,454,619c10.36-.17,19.68-3.45,28.54-9.32-2.46-.54-4.59-.92-6.68-1.48-9.68-2.61-17.56-8.11-24.18-15.47-2.49-2.78-4.72-5.27-9-5.62-3.93-.33-7-3-9.63-6-4.59-5.24-6.92-11.55-8.58-18.19,4.38,8.7,8.6,17.53,19.27,20.44-4.38-11-9.54-21.2-18.48-29l-1.43-1.22a117.2,117.2,0,0,1-21.64,10.59,100,100,0,0,1-23.33,5.66c15-3.72,29.27-9.07,41.78-19C405.75,539.09,388.87,532.91,371,529c19.22-.62,35.43,7.51,51,17.84,1.62-3.54,1.53-7,.84-10.59-1.05-5.39-3.53-10.22-6.19-15a2.9,2.9,0,0,0-1.81-1.08c-12.91-2.71-25.94-4.9-38.47-9.21-1-.34-2-.73-3.2-1.19.85,3.05,1.11,5.91-.94,8.44s-5.77,4.26-11,5l4.27-4.58-.31-.28-4.61,4.37c-2.7-6.28,1.07-11,11.71-14.35-5.13-4.06-10-7.89-14.88-11.82a8.69,8.69,0,0,0-6.22-1.9c-14.56.51-28.92-.88-42.89-5.28-1.75-.56-3.48-1.2-5.22-1.82a1.88,1.88,0,0,1-.76-.54c15,4.09,30,6.33,46.05,4a53.16,53.16,0,0,0-11.76-5.32,29.78,29.78,0,0,0-12.5-1.58l0-.55a45.07,45.07,0,0,1,5.66-.43,38.5,38.5,0,0,1,16.35,4.7c5.52,2.9,10.8,6.27,16.18,9.44.38.23.76.48,1.33.85a12.56,12.56,0,0,0-3.64-7c-3.79-3.77-7.8-7.33-11.74-10.94a30.19,30.19,0,0,0-2.56-1.89l.26-.38c2,1.32,4,2.59,5.95,4,4.84,3.42,9.46,7.12,12.82,12.05,1.38,2,2.13,4.47,3.22,6.7a6.26,6.26,0,0,0,1.31,1.79c8.25,7.67,18.45,10.55,29.3,11.59,2.17.21,4.42-.46,6.62-.91-10.17-3.94-17.35-11.37-23.85-19.66.35.33.71.64,1.05,1s.75.77,1.13,1.15c5,5,10.25,9.63,16.62,12.81a32.15,32.15,0,0,0,4.37,1.5l.28-.56c-1.84-2.06-3.75-4.07-5.53-6.18a59.8,59.8,0,0,1-10.11-15.92c-1.28-3.16-2.26-6.42-1.58-9.91a5.6,5.6,0,0,1,.58-1.68c-.05,8,3.72,14.43,8.46,21,2.6-14.39-.39-27.56-5.27-40.59a1.76,1.76,0,0,1,.34.39A72.69,72.69,0,0,1,400,482.76c.65,5.9.57,11.88.87,17.83a3.08,3.08,0,0,0,.68,1.88c3.6,3.62,6.93,7.64,11,10.63,5.68,4.17,8.71,9.76,10.73,16.15,2.35,7.43,4.55,14.91,6.83,22.37.22.71.44,1.69,1,2,5.78,3.54,8.11,9.57,11.22,15.09,5.49,9.73,12,18.64,21.25,25.2a29.48,29.48,0,0,0,12.3,5.47,6.2,6.2,0,0,0,1.77.1A160.19,160.19,0,0,1,508,599l.45-.5a4.46,4.46,0,0,1-1.2-.58q-5.56-5.16-11.07-10.36a4.34,4.34,0,0,1-1.46-4.31c.3-1.55.58-3.39,0-4.75-.5-1.21-2.17-1.93-3.32-2.87.12-.18.15-.3.22-.33,3.07-1.3,2.94-1.28,2.47-4.64a5.26,5.26,0,0,0-3.6-4.63C480,561.62,470,556.39,461,549.39c-4.43-3.47-8.29-7.66-12.38-11.54a3.84,3.84,0,0,1-.86-1.47,109,109,0,0,0,28.92,20,155.09,155.09,0,0,0,14.4,5.8,22.26,22.26,0,0,0-6.53-9.6c-3-2.46-6.35-4.53-9.17-6.51,12,3.25,18.52,12.19,22.13,24,1.72-2.51,1.82-4.18,1.09-15.6,1.67,3.85,2.86,7.88,2.4,12.1-.26,2.41-1.33,4.74-2,7.12a4.85,4.85,0,0,0-.26,1.67c.3,3,.62,5.93,1.05,8.87a3.4,3.4,0,0,0,1.1,2c6.84,5.19,13.85,10.16,21.64,13.81,2.9,1.35,6.28,1.66,9.42,2.52,7.91,2.14,15.81,4.33,24,6.58a22.73,22.73,0,0,0,3.74-14.73c-.68-7.53-4.46-13.6-9.36-19.05-7.35-8.16-16.25-14.29-25.83-19.5a8.47,8.47,0,0,0-1.25-.68c-3.51-1.11-4.22-3.85-4.12-7a35,35,0,0,1,.32-4.81c1-5.75-1.2-10.78-3.52-15.76-4.8-10.3-11.16-19.66-17.71-28.89a3.25,3.25,0,0,0-1.33-1.08c-2.68-1.14-5.39-2.22-8.1-3.3a2,2,0,0,0-1-.21c-8.06,1.59-15.45-.94-22.73-3.85A109.61,109.61,0,0,1,454.17,485c9.19,3.42,18.11,7.85,28.28,7l.18-.49-3.28-1.6c-7.85-3.93-15.49-8.19-21.72-14.53a17.8,17.8,0,0,1-5.15-8.43,2.89,2.89,0,0,1,0-1.28,25.52,25.52,0,0,0,7,9.43,110,110,0,0,0,9.61,7.12,48.14,48.14,0,0,0-8.42-18.64c-4-5.56-8.46-10.78-12.89-16.36,2.49,2.3,4.92,4.35,7.13,6.63a96.45,96.45,0,0,1,19.75,29.74,5.49,5.49,0,0,0,3.19,3.29q9.9,3.82,19.76,7.75a9.86,9.86,0,0,1,2.93,1.58,145.79,145.79,0,0,1,17.55,18.28c1.93,2.4,4.08,4.63,6.12,6.94.11-.05.27-.07.29-.14,2.25-5.88,4.89-11.65,6.63-17.67,3.74-12.87.36-23.58-11.51-32.14a61.3,61.3,0,0,0-18-8.54l-1.51-.51c2.95-.08,15,3.37,22.9,8.37,1.74-3.79,1.48-7.67.59-11.53a39.56,39.56,0,0,0-6.7-14.7c-1.92-2.59-4.62-4.61-7-6.86a1.32,1.32,0,0,0-.66-.25c-7.58-1.12-13.28-5.62-18.63-10.6a106.25,106.25,0,0,1-8.65-9.44c7.06,6.53,13.67,13.67,23.68,16l-3-3.48A75.06,75.06,0,0,1,491,413.32c-1.67-3.45-2.91-7.05-2.6-11a9.34,9.34,0,0,1,.73-2.87c-.18,8.13,3.69,14.55,8.46,21.18,2.55-14.28-.33-27.35-5.31-40.14l.66-.22c1.75,4.51,3.75,8.95,5.18,13.56s2.31,9.47,3.41,14.14c7.34-9.59,16.75-9.76,27.22-5.24l-14.33,2.75.09.46L529,403.77c-3.65,6-12.5,11.57-27.29,6.48a8.77,8.77,0,0,0-.08,1c.08,4.52.13,9.05.31,13.57a3.46,3.46,0,0,0,1,2.12c4.79,4.55,9.57,9.11,14.51,13.49a12.37,12.37,0,0,1,3.72,5.12c2.84,8.07,5.6,16.18,8.39,24.27.13.38.28.75.46,1.25a20,20,0,0,0,7-8.07,36.27,36.27,0,0,0,4.16-14.32c.21-3.14-.58-6.35-.89-9.53a8.76,8.76,0,0,0-2.22-5.06c-4.05-4.71-5.61-10.48-5.85-16.52a95.34,95.34,0,0,1,.73-13.8c.62,9.08,1.15,18.11,6.06,26.2-.11-2.49-.3-5-.32-7.45s0-5.14.23-7.69c.5-5.73,1.54-11.35,5-16.15a15.07,15.07,0,0,1,3.19-3c-5,6.18-6.08,13.48-6.46,21.08,5-2.91,16.52-17.68,22-36.23-.84,3.33-1.52,6.71-2.57,10-3.8,11.78-10.15,22.15-18,31.59a4.21,4.21,0,0,0-1,3.74c.95,5.39,1.64,10.85,3,16.13a14.76,14.76,0,0,1-.24,9.07c-3.11,8.55-6.32,17.06-9.49,25.59a4.8,4.8,0,0,1-.3.65c-1.25,2-1.14,3.88.08,6.07a21.67,21.67,0,0,1,2.34,10.51c.1,9.21-3.24,17.57-6,26.1-1.88,5.76-3.55,11.6-4.94,17.5a17.7,17.7,0,0,0,.71,10.39,4,4,0,0,0,1.95,2,46.28,46.28,0,0,0,6,2.18,3,3,0,0,0,2.22-.27c6.79-4.5,12.09-10.52,17.11-16.84a7.88,7.88,0,0,1,.66-.84c4.23-4,5.56-8.94,5.13-14.54,0-.52,0-1.19-.25-1.52-2.85-3.26-3.81-7.22-4.29-11.34-.8-6.81.05-13.51,1.47-20.16-.35,9.06-1.74,18.24,3.32,27,1-5.13,1.83-9.86,3-14.5,1.49-6,3.65-11.75,8-16.37a24.85,24.85,0,0,1,5.16-3.93c-6.2,5.26-9.07,12.26-11,20,7.62-3.22,18.65-15.4,29.35-31.87-.78,1.7-1.5,3.43-2.34,5.1-6.22,12.42-15.25,22.55-25.89,31.29a6.82,6.82,0,0,0-2.9,5.51c-.12,5.18-.54,10.36-.4,15.53a14.28,14.28,0,0,1-2.19,8.27c-4.78,7.68-9.65,15.31-14.49,22.95-.32.5-.68,1-1.12,1.6,18,10.81,29,26.08,30.25,47.24a80.69,80.69,0,0,1,6.34-6.68c5.7-4.88,12.55-7.69,19.56-10.09a4.44,4.44,0,0,0,2.64-2.14,100.78,100.78,0,0,0,9.49-23.05,2.51,2.51,0,0,0-.65-1.91c-4.1-4.6-7.94-9.37-10.69-14.92-1.65-3.33-2.89-6.8-2.63-10.62a9.21,9.21,0,0,1,3.74-7.15c-2.68,4.4-2.5,8.88-.7,13.5a1.83,1.83,0,0,0,2.28,1.36,21.29,21.29,0,0,0,9.18-3.76,106.08,106.08,0,0,0,20.25-18.24c1.77-2,3.6-4,5.63-6.3-7.74,15-19.78,25-34.14,33.28,1.93,2.32,3.75,4.63,5.7,6.82a44.42,44.42,0,0,0,4.58,4.52,5,5,0,0,1,1.74,3.72c.49,6-.4,12-1.29,17.95-.12.82-.26,1.64-.38,2.46,24.26-2.78,47.15-9.16,67-24.57-2.66-2.39-5.31-4.66-7.85-7.06-6.92-6.55-13.79-13.15-20.68-19.74l-.38-.38c-2.51-2.41-4-5-3.62-8.86s-.59-8-1-12.05a2.9,2.9,0,0,0-2.09-2.54c-11.69-5-22.93-10.9-32.85-19-3.81-3.1-7.07-6.87-10.57-10.35a2.29,2.29,0,0,1-.55-1.1,107.5,107.5,0,0,0,20.29,15.43,116,116,0,0,0,23.45,10.63,30,30,0,0,0-16.37-15.92l.26-.46,7.44,3a15.6,15.6,0,0,0,1.25-9.86,38.58,38.58,0,0,0-7.13-17c-2.14-2.94-5.28-5.14-7.87-7.76-6.64-6.71-12.9-13.73-17.36-22.14a25.3,25.3,0,0,1-3.29-11.54,10.31,10.31,0,0,1,.72-3.61,22.64,22.64,0,0,0,2.36,11,70.83,70.83,0,0,0,5.87,9.73c2.88-13.91-.07-27-5.11-39.84l.7-.22c1.83,4.75,3.92,9.42,5.42,14.28a88.85,88.85,0,0,1,3.52,30,2.78,2.78,0,0,0,.44,1.8c1.92,2.17,4,4.25,6,6.42a28.82,28.82,0,0,0,12.58-18.19c1.3-5.95.65-11.77-.93-17.64a10,10,0,0,0-6-7.15C619.14,403.47,613.53,395,611.86,384a44.52,44.52,0,0,1-.42-5.67c2.64,12.48,6.84,23.71,21,28-.25-1.83-.4-3.33-.66-4.8-1.27-7.43-2-14.85-.32-22.31,1-4.41,2.9-7.84,5.87-10.18-3.69,5.35-5,11.34-4.89,17.71,7.38-.16,16.76-5.39,19.57-18.54.54,2.88-1.18,8.38-3.53,11.52-3.64,4.88-8.63,7.76-14.33,9.5-1.38.42-1.83,1-1.59,2.34.67,4,1.27,7.94,1.95,12.21,4.82-.32,9.3-.33,13.7-1,5-.76,10-2,15-3.2a5.8,5.8,0,0,0,4.19-3.61c3.2-6.87,5.72-13.89,5.88-21.55a28.93,28.93,0,0,0-5.74-18.56c-1.86-2.48-3.54-4-6.8-4.69-14.83-3.2-24.24-12.63-29.18-26.78,0-.09,0-.22.08-.3,6.57,12.31,14.45,23,30.63,23.81l-2.54-4.58c-3.26-5.91-6.18-12-7.74-18.57-.91-3.86-1.46-7.75.13-11.58a10.52,10.52,0,0,1,2-2.88c-2.15,6.39-1.36,12.56.63,18.84,4.82-1.53,8.59-4.08,11-8.36s2.83-8.67,2.17-13.85c2.83,7.73,1.18,18.07-12.42,25.14,2.16,4.13,4.14,8.39,6.56,12.37,2.57,4.22,5.68,8.09,8.35,12.24,6.18,9.6,8,19.9,4.28,30.88-1,2.89-2.4,5.63-3.71,8.62a37.81,37.81,0,0,0,10.68-6.71c1.5-1.36,3-2.73,4.43-4.16.35-.35.77-1,.65-1.41-2.09-6.77-.33-12.83,3.43-18.47,4.05-6.06,9.69-10.36,16-13.84-1.11.88-2.23,1.74-3.32,2.65s-2.18,1.84-3.23,2.81c-3.92,3.62-7.46,7.55-9.45,12.61A12,12,0,0,0,691,380.9c4.2-3.1,8.3-6.26,12.55-9.22a70.58,70.58,0,0,1,19.28-9.95c3.73-1.17,7.36-1.51,10-.74-7.94.75-15.12,3.68-22.09,7.61,4.55,3.53,9.66,4.54,15.07,4.47s10.31-1.44,15.31-3a33.62,33.62,0,0,1-13.12,4.12,36.25,36.25,0,0,1-19.31-3.34,2,2,0,0,0-1.61-.07,130.88,130.88,0,0,0-23.63,19.5c4.7,1.89,9.08,3.84,13.59,5.43a79.6,79.6,0,0,0,52.38.41,5.42,5.42,0,0,0,3.26-2.95c3.6-7.37,6.2-15,6.09-23.28a29.29,29.29,0,0,0-5.62-17.18,11,11,0,0,0-7.31-4.89c-12.74-2.75-21.64-10.46-27-22.28-.59-1.3-1.1-2.63-1.63-4a4.55,4.55,0,0,1-.11-.77c6.77,12.38,14.55,23.07,30.61,23.8-1.59-2.95-3-5.52-4.38-8.14-3-5.8-5.67-11.73-6.36-18.27a30.78,30.78,0,0,1,.63-8.09c.18-1.11,1.18-2.09,2-3-2.09,6.33-1.36,12.46.62,18.56,6.38-1.29,14.53-7.37,13.36-21.21,2.86,7.39.42,17.58-12.39,24.27a50.54,50.54,0,0,0,2.68,5.9c3.54,5.84,7,11.77,10.93,17.35,6.49,9.21,8.92,19.12,6,30.06-1,3.7-2.71,7.19-4.12,10.83a36.85,36.85,0,0,0,9.36-5.68c6.35-5.29,12.48-10.87,19-15.9,7.48-5.75,15.49-10.7,24.75-13.18a19.3,19.3,0,0,1,8.73-.49c-3.07.65-5.93,1.08-8.68,1.86a69.68,69.68,0,0,0-24.29,12.91c-5.9,4.71-11.37,10-17,15a58.06,58.06,0,0,1-16.25,9.88,75,75,0,0,1-25,5.38c-16,.89-31.29-2-45.55-9.57a1.77,1.77,0,0,0-1.54,0c-13,9.42-27.77,13-43.62,12.84-.28,0-.56.07-1.13.14.88,2.59,1.52,5.14,2.59,7.49,2.25,4.91,2.37,10.06,1.92,15.24-.94,10.8-3.68,16.49-12.3,26.33,1.69,1.41,3.48,2.72,5,4.27a13.83,13.83,0,0,1,3.42,4.41c2.91,7.73,5.56,15.57,8.29,23.37.29.83.52,1.69.83,2.68a18.79,18.79,0,0,0,6.76-7.55,37.4,37.4,0,0,0,4.64-16.72c.1-3.09-.89-6.22-1.4-9.33a1,1,0,0,0-.35-.6c-5.33-4.29-7.22-10.38-8.4-16.7A115.3,115.3,0,0,1,645,425.08c1.68,9,2.48,18.25,8.91,25.53l.52-.08c0-.65,0-1.31-.1-2-.62-8.17-.82-16.31,1.54-24.29a19.08,19.08,0,0,1,5.08-8.88c.31-.29.63-.55,1-.81a7.77,7.77,0,0,1,.9-.37,25.91,25.91,0,0,0-5.31,10.14A42.18,42.18,0,0,0,656,435.57c6.53-5.05,16.37-18.37,21.78-36-.49,2.18-.92,4.37-1.5,6.52-2.85,10.54-8,20-14.3,28.79a69.75,69.75,0,0,1-4.54,5.74,4.27,4.27,0,0,0-1.16,3.88c1.13,6,2.1,12,3.48,17.86a12.23,12.23,0,0,1-.66,7.15q-5,13.93-10.42,27.73a5.24,5.24,0,0,0,.22,4.69c2,4.18,3.56,8.54,5.36,12.95,2.47-1.31,4-3.81,4.76-6.72,1.37-4.95.91-9.92-.19-14.86a1.49,1.49,0,0,1,0-.86c2.62,6.82,4.82,13.74,1.25,20.85-1,2-2.86,3.58-4.5,5.17-.7.68-1.33,1.12-1,2.17a2.24,2.24,0,0,1,.09.89c-.25,3.79,1.42,6.5,4.17,9.07,8.1,7.56,16.52,14.67,26.85,19,6,2.48,4.5,3.09,8.19-2.59,3.48-5.35,5.49-11.37,7-17.49,2.06-8.08,4.85-15.84,9.48-22.81,1.12-1.7.84-3.06.22-4.7q-4-10.6-7.92-21.25c-.47-1.28-.73-2.64-1.19-3.92a20.13,20.13,0,0,1-.19-12.38,116.31,116.31,0,0,0,2.42-14.79,4.59,4.59,0,0,0-.92-3c-8-10.31-14.4-21.43-17.85-34.1-.64-2.35-1.09-4.75-1.61-7.13,0-.16.05-.34.14-.85,3.29,11.82,8.16,22.54,15.79,31.85,1.37,1.68,2.92,3.23,4.38,4.83l.68-.24c-.51-3.53-.69-7.16-1.63-10.59s-2.64-6.65-4-10a29,29,0,0,1,2.46,2.84c3.15,4.69,4.15,10.07,4.62,15.57.24,2.9.32,5.83.28,8.75s-.31,5.67-.5,8.74a28.56,28.56,0,0,0,8.09-8.35c5.46-8.09,8.33-17.2,10.42-26.62.28-1.26.54-2.52.82-3.78l.49.06c-.23,3.06-.32,6.13-.7,9.17-1.35,11-4.73,21.28-11.35,30.27a64.34,64.34,0,0,1-7.72,8.61,6.14,6.14,0,0,0-2.2,5.18c.7,7.41,2.24,14.6,6.85,20.74a22.42,22.42,0,0,0,1.9,2.13,10.37,10.37,0,0,0,1.07.9,11.21,11.21,0,0,0,.47-1.21c2.29-8.13,4.53-16.29,8.21-23.94a10.91,10.91,0,0,1,2.66-3.48c6.4-5.47,12.49-11.27,17.48-18.07,2.63-3.57,4.72-7.55,7.06-11.34a2,2,0,0,0-.44-2.91,32.28,32.28,0,0,1-9-16.13,5.44,5.44,0,0,1-.07-1.94c2.27,6.42,5.06,12.43,11.25,16.78l.94-7.68.69,2c7.4-.37,12.21-5.17,17.26-9.57-4.75,5.23-9.72,10.15-17.23,11.59-.28,6.25-3.26,11.53-6.4,16.9a23.35,23.35,0,0,0,11.27,0c3.78-.82,7.47-2,11.21-3s6.37-3.29,9.22-5.57c3.94-3.16,8-6.12,12.17-9.22-8.73-8-9.9-18.79-10.39-29.84.78,5.78,1.69,11.55,4.08,17.21,17.44-10.28,30.7-24.06,38.32-42.93A43.28,43.28,0,0,1,815.9,387c-7.53,12-17.71,21.43-29,29.82l-1.74,1.28a15.56,15.56,0,0,0,6.63,7.13,3.32,3.32,0,0,0,3.5,0c4.07-2.16,8.31-3.91,13-4.2a16.28,16.28,0,0,1,4.1.38c-10.45.3-18.6,5.73-26.45,11.71-3.16,2.41-6.06,5.18-9,7.87-2.24,2.05-2.37,3.72-.18,5.86a35.3,35.3,0,0,0,6.17,4.79c7.93,4.83,16.6,8,25.32,11,3.19,1.11,6.4,2.14,9.54,3.52-3.32-.67-6.67-1.22-10-2a109.2,109.2,0,0,1-39.44-18.27,2.84,2.84,0,0,0-2.09-.2c-7,1.59-14,3.25-21.06,4.85a17.27,17.27,0,0,1-2.36.28c-4.64,5-8.86,10.25-13.72,14.78-5.23,4.87-7.92,10.93-9.85,17.48a39,39,0,0,0-1,7.58,19.49,19.49,0,0,0,.37,3.49c4.55-5.46,9.06-10.38,15.22-13.45-1,.9-2.1,1.75-3.08,2.7-5.46,5.28-9.39,11.67-13,18.26a196.33,196.33,0,0,0-12.25,27.73c-.08.22-.11.46-.26,1.14,2.47,0,4.89.36,7.15-.06,8.33-1.56,15.54-5.6,21.9-11,2.45-2.08,4.18-5,6.21-7.59a1.54,1.54,0,0,0,.24-1c-.39-5.1,1.83-9.36,4.37-13.49a72.18,72.18,0,0,1,11.73-13.91c-5.32,7.3-11.94,13.91-13,23.46l.52.34c1.63-1.72,3.23-3.48,4.9-5.16,6.59-6.6,13.41-12.92,22.52-15.91a25.84,25.84,0,0,1,6.62-1c-8.29,1.72-14.94,6.26-21.49,12.09a74,74,0,0,0,22.74-4.5c7.09-2.63,14-5.76,21.11-8.48-5.07,2.69-10.05,5.6-15.26,8A127.46,127.46,0,0,1,754,501.8a5.46,5.46,0,0,0-3.11,1.73c-4,5-7.75,10.1-11.68,15.11-1,1.29-.84,2.36.23,3.22a58.52,58.52,0,0,0,8,6c10.89,6,22.54,10.17,34.37,13.88.77.24,1.51.52,2.75,1-11.85-1.2-32.44-7.22-49.37-19.76-5.06,2.61-10,5.28-15.09,7.74s-10.36,4.75-15.51,7.17a3,3,0,0,0-1.49,1.54,59.17,59.17,0,0,1-19.85,28.24c-.32.25-.6.53-1,.9A58.44,58.44,0,0,0,698.61,579c12.37,5.31,24.67,5.2,36.78-.77,2.55-1.26,4.83-3,7.31-4.45A38.47,38.47,0,0,1,758,568.65a19.28,19.28,0,0,1,14.47,4A88.12,88.12,0,0,0,762.28,571c-8.58-.47-16.07,2.81-23,7.56a64.59,64.59,0,0,0-6.58,5.21c-1.46,1.31-2.85,2.43-5,2.34a10.72,10.72,0,0,0-2.21.37c.78,4,3.29,6.43,6.65,8.16A36.51,36.51,0,0,0,746,598.17c1.77.15,3.55.24,5.31.47-8.42.83-16.81,1.37-24.47-3.37a12.26,12.26,0,0,1-5.61-7.14c-.34-1.2-.89-1.41-2-1.36a80.8,80.8,0,0,1-23.26-1.86c-7.12-1.72-13.68-4.53-18.64-10.22-.47-.54-.9-1.1-1.39-1.69-3.09,1.57-6.1,3.21-9.2,4.68-7.31,3.46-15.08,5.44-22.93,7.25-13.44,3.1-26.32,7.62-37.25,16.43S590,621.77,588.59,635.53c-1.27,12.16.11,24.17,2.35,36.08,2.68,14.28,5.59,28.51,8.54,42.74.8,3.82,2,7.58,3.16,11.32,2.13,6.81,8.14,9.1,14.51,9.44,2.38.13,4.77.15,7.15.2,3.66.07,6.3,2.64,9.49,3.82s6.39,2.14,9.62,3.12a2.6,2.6,0,0,0,3-1c.22-.28.55-.47.74-.77,2.05-3.24,5.11-4.09,8.66-3.5,4.2.7,8.38,1.46,12.67.41l.11.61a17.66,17.66,0,0,1-3.61,1,45.75,45.75,0,0,1-7.31,0,7.35,7.35,0,0,0-6.92,3.3,105.61,105.61,0,0,1,10,3.88,30.86,30.86,0,0,1,6.25,4.67,13.16,13.16,0,0,0,5.66,3.08,53.66,53.66,0,0,1,9.75,3.8,5.77,5.77,0,0,0,4.06.58c3.06-.76,6.1-1.62,9.18-2.25a10.54,10.54,0,0,1,4.36-.13,66.43,66.43,0,0,1,9.15,3c-7.6-1.28-15.18-2.95-22.24,2.2,1.43,1.59,2.81,3.21,4.28,4.74,2.25,2.34,5.32,2.11,8.18,2.47,3.79.48,7.57,1,11.36,1.35a6.72,6.72,0,0,0,2.92-.34c3.12-1.16,6.2-2.44,9.27-3.73a21.52,21.52,0,0,1,10.28-1.54,112.36,112.36,0,0,0,12.44-.17c2-.07,3.9-.33,5.84-.51l0,.51c-5.71.54-11.41,1.43-17.12,1.51a30.32,30.32,0,0,0-14,3.65,13.47,13.47,0,0,0-2.17,1.31c7.87.41,15.77.46,23.36,3-2.78-.35-5.55-.83-8.34-1-8.39-.52-16.78-.85-25.16-1.4-4.69-.3-9.37-.82-14-1.35-2.07-.24-3.76-.24-4.84,2-.86,1.81-2.37,3.3-3.32,5.07-1.27,2.41-.95,3.59,1.21,5.25s4.55,3.25,6.79,4.92c1.43,1.06,2.79,2.22,4.17,3.34l-.72.8-1.23-1c-3.21-2.54-6.45-5-9.64-7.62-1.29-1-2.56-2.12-3.74-3.28a2.36,2.36,0,0,1-.2-3.53c2-2.2,2.59-4.91,3-7.68a2.91,2.91,0,0,0-.5-1.83c-.79-1.18-1.76-2.23-2.57-3.4-1.36-1.95-3.36-2.71-5.54-3.27a104.77,104.77,0,0,1-10.26-2.94,9.67,9.67,0,0,1-4.3-3.27c-2.06-2.93-4.9-3.94-8.6-4.52,2.55,3.06,2.09,6.43,2.14,9.7,0,2.51,1.67,4,3.27,5.65,2.31,2.42,4.64,1.91,7,.69a4.09,4.09,0,0,1,3.91-.13l5.42,2.54-.17.47c-1.93-.66-3.84-1.69-5.81-1.85s-3.86.6-5.79,1l0,.53,7.13,4.58-.26.35L664,769.3l-.41.28c2.8,3.11,1.82,6.56,1.25,10-.68,4.08.85,7.22,4.68,8.47,1.53.5,3.47-.24,5.22-.45,1-.12,1.87-.39,2.82-.47,2.73-.22,4.7,1.53,5,4.73-.4-.75-.64-1.19-.86-1.64a3.56,3.56,0,0,0-3.66-2.08,37,37,0,0,0-7.72,1.59l4,2.43-.29.49c-2-1.21-4-2.34-5.9-3.65-1.5-1-2.84-2.26-4.25-3.42-.54-.45-1.06-.93-1.61-1.41a1.11,1.11,0,0,0-.29.1c-4.56,3.13-5.87,3.37-3.61,10.44a4.62,4.62,0,0,1,.23,1.22,7.33,7.33,0,0,1-.2,2.32c-.65-2.69-1.36-5.36-1.9-8.07a4.34,4.34,0,0,1,1.82-4.55c.48-.36.94-.73,1.4-1.11a9.72,9.72,0,0,0,2.31-12.38c-.75-1.41-1.33-2.91-2.06-4.33a4,4,0,0,0-1.05-1.14c-1.54-1.29-3.1-2.55-4.76-3.91-1.92,2.51-3.15,5.26-2.17,8.74.66,2.34.95,4.78,1.41,7.17l-.75.17c-1-3.74-2.07-7.46-3-11.21a3.19,3.19,0,0,1,.7-2.13c4.39-6.28,2.62-11.51-1.77-16.62a1.5,1.5,0,0,0-1.07-.44c-8.23.38-15.91-1.79-23.37-5-.08,0-.21.05,0,0,.14,2.71.5,5.36.38,8-.23,4.86,3.26,7.12,6.55,9.21,1,.64,3.38-.3,4.82-1.08a5.13,5.13,0,0,1,5.22.07,38.94,38.94,0,0,1,5.58,3.12,16,16,0,0,1-3.71-1c-3.3-1.84-6.36-1.44-9.49.64,2.45,2.08,5.83,2.9,7.85,5.73l-9.2-3.86c-.37,3.07-.71,5.93-1.08,8.8-.27,2.12.54,3.54,2.12,5.1,2.29,2.25,4.64,2.19,7.34,1.56a23.07,23.07,0,0,1,3-.52c3.23-.3,4.92,1,5.67,4.83a14.22,14.22,0,0,1-.78-1.34,3.8,3.8,0,0,0-4.12-2.51c-2.51.23-5,.74-7.75,1.17,2.5,2.44,6.4,2.74,7.55,6.32-1.73-3-5-3.73-7.73-5.24a13.53,13.53,0,0,1-1.92-1.58l-4-3.21c-.59-.48-1.16-1-1.74-1.47-5.65,3.75-5.67,3.88-4,10.28a11.21,11.21,0,0,1,.14,3.84c-.6-2.52-1.22-5-1.81-7.56-.5-2.11,0-4,1.88-5.14,7.23-4.34,5.29-13.54.38-17.86-.89-.78-1.75-1.58-2.72-2.46-2,2.8-3.5,5.77-2.51,9.59.73,2.83,1.13,5.75,1.68,8.63l-.52.13c-.12-.1-.32-.18-.35-.31-1.1-3.76-2.32-7.5-3.2-11.32a5.2,5.2,0,0,1,.78-3.65c4.46-6.46,3-12.85-1.49-18.29a2.64,2.64,0,0,0-1.57-.54c-5.37-.64-10.76-1.11-16.1-1.93-1.76-.27-3.39-1.4-5.07-2.12s-3.44-1.94-5.94-1.48a15.14,15.14,0,0,0,.91,2.46c1.66,2.89,3.5,5.68,5.08,8.61,4,7.37,3.8,13.18-.47,20.53a3.47,3.47,0,0,0,.6.55,9.51,9.51,0,0,1,4.85,6.33c.81,3.58,3.49,5.15,6.65,6a3.69,3.69,0,0,0,2.93-1.09c1.58-1.62,3.29-1.62,5.24-1.13,1.06.26,2.16.37,3.25.56l-.06.45a19.31,19.31,0,0,0-4.65-.27,18.52,18.52,0,0,0-4.22,1.87Z" transform="translate(-106.08 -239.04)"/><path class="cls-2" d="M511.68,239.75c2.34,1,4.86,1.65,7,3,3.75,2.32,6,5.89,7.45,10.37C523.91,252,522,250.94,520,250a34.5,34.5,0,0,0-6.16-2.22l11.41,5.89c-12.5,3.82-24.77-.62-28.3-12l7.89-1.94Z" transform="translate(-106.08 -239.04)"/><path class="cls-2" d="M380.11,644.67c-6.77.8-12.79,1.07-17.65-3.8a12.8,12.8,0,0,1-3.56-8.69l7.55,5.45.26-.33-7.2-5.77c6.22-.24,11.63.46,16.12,4.41,10.33-9.8,21.28-7,28.66-1H391.77v.26l12.37.68c-5,5-16.6,8.31-27.08,1.23C378,639.38,379,641.83,380.11,644.67Z" transform="translate(-106.08 -239.04)"/><path class="cls-2" d="M540.29,268.06c.49,6.9-4.19,13.41-11,15.67-5.95,2-12,2-18.29,1l13.86-6.52-.18-.39-14.58,6.09a18.14,18.14,0,0,1,5.73-10.14c4.31-3.92,9.64-5.32,15.26-5.7C534.17,267.89,537.25,268.06,540.29,268.06Z" transform="translate(-106.08 -239.04)"/><path class="cls-2" d="M386.93,304.31c3.56,8,1.2,15-6.3,19.1-4,2.18-10.18,3.82-13.49,3.67,2.69-2.67,5.5-5.45,8.3-8.25a.74.74,0,0,0,.19-.71l-9.75,8.42a15.27,15.27,0,0,1,6.38-17.39A32.31,32.31,0,0,1,386.93,304.31Z" transform="translate(-106.08 -239.04)"/><path class="cls-2" d="M550.75,296c-13.45,8.9-28.17,5.41-36-5.07l15.47,3.18.12-.55L515,290C527.09,283.68,542.68,285.42,550.75,296Z" transform="translate(-106.08 -239.04)"/><path class="cls-2" d="M341.16,551.88c7.42-1.87,14.69-2.76,21.63,1.16,4.93,2.78,7.8,7.15,9.16,12.58l-13.39-7-.2.39L371,566.33C358.42,569.58,344.18,564.73,341.16,551.88Z" transform="translate(-106.08 -239.04)"/><path class="cls-2" d="M563,373.61c2.25-2.59,4.4-5,6.51-7.5a7.37,7.37,0,0,0,1.4-2.44L562.06,373c-2.51-4.15-1.62-11.28,1.93-15.3,4.1-4.65,9.62-6.63,15.49-7.75.4-.08,1.19.62,1.42,1.12,3.72,8.07,1.48,14.69-6.35,18.91A35.83,35.83,0,0,1,563,373.61Z" transform="translate(-106.08 -239.04)"/><path class="cls-2" d="M298.91,370.6c7-.43,13.78-.38,19.64,3.93,5,3.65,6.63,8.84,6.35,14.87l-10.62-8.93-.3.36,9.81,9.12c-10.19.58-20-3.36-23.36-11.12A17.38,17.38,0,0,1,298.91,370.6Z" transform="translate(-106.08 -239.04)"/><path class="cls-2" d="M323.57,580,311.7,573.6l-.24.43,11.12,6.62c-11.76,3.08-26.35-1.07-29.75-14.37a36.82,36.82,0,0,1,11.51-1.65,19.4,19.4,0,0,1,19.1,14.55A6.88,6.88,0,0,1,323.57,580Z" transform="translate(-106.08 -239.04)"/><path class="cls-2" d="M468.86,351c5.62.56,11,1.6,15.64,5,5.31,3.92,6.89,11.53,3.9,17.7l-7.86-10.77-.38.27,7.18,11.13a31.09,31.09,0,0,1-12.79-4.73,14.63,14.63,0,0,1-6.71-10.29A16.81,16.81,0,0,1,468.86,351Z" transform="translate(-106.08 -239.04)"/><path class="cls-2" d="M459.11,414.39a76.91,76.91,0,0,1,4.53,7.25c2.27,4.76,1.28,9.33-2.63,13.22a28.75,28.75,0,0,1-10.81,6.51q2.6-5.92,5.2-11.87l-.42-.19L449,441c-5.94-7.11-5.33-15,.63-20.16C452.32,418.49,455.61,416.74,459.11,414.39Z" transform="translate(-106.08 -239.04)"/><path class="cls-2" d="M362.08,317c0-3.72,0-7.1,0-10.48a14.72,14.72,0,0,0-.42-2.43h-.48V316.7c-10-5.78-13.1-15.26-5.64-23.68,4-4.47,2.87-4,7.46-.93a24.47,24.47,0,0,1,4.85,4.41c3.28,3.82,3.44,8.08,1.23,12.48A24.71,24.71,0,0,1,362.08,317Z" transform="translate(-106.08 -239.04)"/><path class="cls-2" d="M290.06,594.84c4-8.28,12.56-12.75,22.09-11.6a35.42,35.42,0,0,1,11.8,3.44l-15.1,2.71.07.42,15.26-2.1C317.81,597.92,303.44,601.23,290.06,594.84Z" transform="translate(-106.08 -239.04)"/><path class="cls-2" d="M357.25,575.48l15.25-2.09c-4.72,9.9-23.59,13.74-34.15,7,3.72-6.8,9.26-10.91,17.09-11.55,5.77-.47,11.23.94,16.48,3.25a1,1,0,0,1,.3.28l-15,2.65Z" transform="translate(-106.08 -239.04)"/><path class="cls-2" d="M441.76,443.56l-7.56-10.48-.41.29,6.73,10.56c-8.74-1-17.94-6-19.09-13.92-.39-2.68.2-5.52.46-8.28a1.5,1.5,0,0,1,1.14-.89c4.94.58,9.8,1.51,14,4.39,5.37,3.67,7.35,9.7,5.41,16.24C442.24,442.19,442,442.89,441.76,443.56Z" transform="translate(-106.08 -239.04)"/><path class="cls-2" d="M298.38,531.25c-14,2.75-27-2.1-30-14.62,7.67-1.86,15.21-2.78,22.44,1.61,3.72,2.26,7.58,7.76,8.3,12.1l-12.42-6.57-.26.5Z" transform="translate(-106.08 -239.04)"/><path class="cls-2" d="M604.08,371.93c-7.36,12.38-21.91,13.4-34.53,6.29l15.36-1.85-.06-.46-15.51,1.31C577.53,366.69,592.36,365.19,604.08,371.93Z" transform="translate(-106.08 -239.04)"/><path class="cls-2" d="M290.94,466.3q1.85,6.07,3.68,12.15l-.39.45c-1.9-1-3.88-1.81-5.68-2.93-5.05-3.16-8.74-7.22-8.34-13.72a16.69,16.69,0,0,1,3.17-8.61c.22-.31.82-.67,1.11-.58,5.11,1.69,10.21,3.46,13.51,8.13,2.64,3.75,2.66,7.81,1,11.9-.8,2-1.91,3.77-2.9,5.68l-4.71-12.63Z" transform="translate(-106.08 -239.04)"/><path class="cls-2" d="M257.71,473.58c13.69-6.22,27.6-2.42,32.73,10.26l-13.89-5.37-.16.42,13.52,5.91C275.36,489.48,262.27,484.43,257.71,473.58Z" transform="translate(-106.08 -239.04)"/><path class="cls-2" d="M501.82,359.25l-6.26,12.11c-5.46-7-5.83-15.12,1.65-21.14a51.78,51.78,0,0,1,7.47-4.47,1.7,1.7,0,0,1,1.53,0c3,3.33,5.46,6.94,5.22,11.73-.16,3.19-1.86,5.6-4,7.74a28.75,28.75,0,0,1-10.8,6.46c1.08-2.15,2.18-4.13,3.07-6.2s1.57-4.2,2.35-6.3Z" transform="translate(-106.08 -239.04)"/><path class="cls-2" d="M265.46,545.28c3.91-6.66,9.12-10.94,17-11.53a33.89,33.89,0,0,1,15.95,2.84c.31.14.61.32,1,.54L283.88,540l.08.39,15.81-2.19C293,548.55,278.89,551.53,265.46,545.28Z" transform="translate(-106.08 -239.04)"/><path class="cls-2" d="M557.85,479.71q4.35-4.89,8.71-9.79l-.21-.19-9.44,9.54-.6-.37c-1.31-4.59-1.48-9.11,1.35-13.33S565,459.35,569.8,458c.91-.26,1.88-.34,2.78-.62,1.77-.55,2.61.08,3.25,1.82,3,8.16.52,14.59-7.48,17.94-3.35,1.41-7,2.1-10.5,3.11Z" transform="translate(-106.08 -239.04)"/><path class="cls-2" d="M514.17,505.83c-3.79-3.1-6.68-6.26-7.81-10.67-1.05-4,.28-7.57,2.94-10.56a44.06,44.06,0,0,1,5.06-4.47c.34-.29,1.13-.51,1.41-.32,3.89,2.61,7.58,5.44,9.14,10.13a9.13,9.13,0,0,1-1,7.91,22.54,22.54,0,0,1-8.37,7.92q.51-6.11,1-12.22l-.41,0C515.55,497.47,514.9,501.44,514.17,505.83Z" transform="translate(-106.08 -239.04)"/><path class="cls-2" d="M549.83,519.77c.53,2.5,1.26,5,1.55,7.47.48,4.28-1.4,7.62-4.73,10.2s-10.14,4.83-14.46,4.83l8.62-9.63-.23-.19-9.43,9.45A14.43,14.43,0,0,1,534.84,525,25.6,25.6,0,0,1,549.83,519.77Z" transform="translate(-106.08 -239.04)"/><path class="cls-2" d="M464,312.65l9.52-7.36-.3-.39-10.42,7.28c-.35-5.7,1.15-10.3,5.35-13.76,4.76-3.93,10.51-5.12,16.49-5.4.38,0,1.06.67,1.16,1.13,1.5,6.53-1.06,12.1-6.94,15.3A30.2,30.2,0,0,1,464,312.65Z" transform="translate(-106.08 -239.04)"/><path class="cls-2" d="M580.73,325.92c-.48-4.1-.89-7.67-1.32-11.24a3.85,3.85,0,0,0-.31-.82v11.92c-1.29-.94-2.44-1.7-3.5-2.57-3.44-2.78-6.11-6.07-6.24-10.74-.13-5,2.51-8.67,5.94-11.91a1.35,1.35,0,0,1,1.25-.16c3.57,1.82,7,3.89,9.23,7.36,2.6,3.95,2.2,8-.11,11.78A70.15,70.15,0,0,1,580.73,325.92Z" transform="translate(-106.08 -239.04)"/><path class="cls-2" d="M403.88,339.24c-1.72-4-3.33-7.74-4.94-11.48l-.42.17,4.07,11.42C395.42,338,389,332,388.17,326.09a15,15,0,0,1,2.45-10.18,1.27,1.27,0,0,1,1.09-.5A29.51,29.51,0,0,1,402.08,320c5.16,3.88,6.47,9.3,3.73,15.56C405.25,336.81,404.52,338,403.88,339.24Z" transform="translate(-106.08 -239.04)"/><path class="cls-2" d="M454.12,300.19v12c-5.27-3.66-9.92-7.38-9.67-14.29.16-4.59,2.77-8,6-11a1.32,1.32,0,0,1,1.25-.07c2.56,1.73,5.32,3.25,7.53,5.36,3.78,3.6,4.35,8.05,2.06,12.76a21.4,21.4,0,0,1-5.63,7c-.36-4-.73-7.95-1.1-11.94Z" transform="translate(-106.08 -239.04)"/><path class="cls-2" d="M335.91,348.19,333.52,336l-.39.08,1.49,12.25c-6.19-2.63-11.39-8.38-11.25-13.82.11-4.39,2.07-7.86,4.9-11a1.31,1.31,0,0,1,1.2-.27c3.71,1.66,7.31,3.52,9.9,6.79a10.26,10.26,0,0,1,1.8,9.93A20.64,20.64,0,0,1,335.91,348.19Z" transform="translate(-106.08 -239.04)"/><path class="cls-2" d="M404.66,290.45c-12.56,3.05-25.64-2-28.18-13.71,8.06-1.86,16-2.84,23,2.93a16.89,16.89,0,0,1,5.93,10l-11.79-6.19-.21.41Z" transform="translate(-106.08 -239.04)"/><path class="cls-2" d="M411.59,285.22c-.79-4.12-1.55-8.11-2.32-12.1l-.4.07c.48,4,.95,8,1.47,12.37-5-2.72-9-5.65-10.75-10.77-1.86-5.38,1.28-11.05,4.41-14.29a1.19,1.19,0,0,1,1.09-.21c3.75,1.59,7.31,3.49,9.92,6.75a10.37,10.37,0,0,1,1.64,10.59A20.22,20.22,0,0,1,411.59,285.22Z" transform="translate(-106.08 -239.04)"/><path class="cls-2" d="M588.91,326.35l10.49-8.3-.25-.32-11.35,8.06c-.36-5.64,1.05-10.25,5.19-13.69,4.79-4,10.58-5.23,16.64-5.48.37,0,1,.67,1.13,1.13a13.13,13.13,0,0,1-7.26,15.46A33,33,0,0,1,588.91,326.35Z" transform="translate(-106.08 -239.04)"/><path class="cls-2" d="M330,352.76l-12-6.31-.2.39,11.33,6.63c-13.65,3.07-25.8-2.61-28.32-13.76,8.15-2,16.13-2.84,23.22,3A18.4,18.4,0,0,1,330,352.76Z" transform="translate(-106.08 -239.04)"/><path class="cls-2" d="M472,347.5c-13.82,4.94-26.29.55-31.2-9.46,12.07-6.08,25.41-3.85,31.68,8.52l-13.77-4.63-.13.39Z" transform="translate(-106.08 -239.04)"/><path class="cls-2" d="M367.39,335.63c13.4-6.69,26.35-2.45,31.49,8.73l-13.44-4.69-.14.4,13.08,5.19C385.85,349.85,372.62,346.48,367.39,335.63Z" transform="translate(-106.08 -239.04)"/><path class="cls-2" d="M503.37,279.16c-5.5-6.12-5.07-13.85,1.08-18.72a47.8,47.8,0,0,1,7.5-4.39,2,2,0,0,1,1.91.41,32.88,32.88,0,0,1,3.88,6.12c1.8,4.25.31,7.9-2.86,11a27.51,27.51,0,0,1-10.29,5.91c1.64-3.54,3.26-7.06,4.89-10.57l-.42-.18Z" transform="translate(-106.08 -239.04)"/><path class="cls-2" d="M549.32,270.12c-3-1.62-6.26-2.92-9-4.92-6.5-4.76-6.32-11.59-3-17.64a1.68,1.68,0,0,1,1.43-.56,26.59,26.59,0,0,1,10.54,4.18c4.36,3.17,5.93,7.75,4.25,12.9-.61,1.87-1.52,3.63-2.32,5.5-1.55-3.23-2.94-6.15-4.37-9.05a7.68,7.68,0,0,0-1.25-1.73q2.11,5.37,4.24,10.72Z" transform="translate(-106.08 -239.04)"/><path class="cls-2" d="M361,327.31c-14.18,4.05-25.57-2-28.17-11.81,13.31-5.38,25-1.19,28.88,11l-11.58-5.38-.2.41Z" transform="translate(-106.08 -239.04)"/><path class="cls-2" d="M483.13,539.59l-5.29-10.21-.4.2c1.49,3.45,3,6.89,4.66,10.74-5.38-1.79-10.12-3.67-13.41-8s-2.56-9.87,0-14.08a1.32,1.32,0,0,1,1.12-.49c4.44,1,8.73,2.31,12.37,5.22C487.42,527.15,487.37,534.41,483.13,539.59Z" transform="translate(-106.08 -239.04)"/><path class="cls-2" d="M490.49,538.4c-3.9-6.17-2.41-13.28,3.88-17.27,3-1.91,6.55-3,9.89-4.37a1.6,1.6,0,0,1,1.48.41,13.12,13.12,0,0,1,2.87,8.46c-.24,4.19-2.7,7.14-6.2,9a102.88,102.88,0,0,1-10,4.06,2.52,2.52,0,0,1-.72.09l7-9.43-.42-.31Z" transform="translate(-106.08 -239.04)"/><path class="cls-2" d="M378,376.64c-5.42-1.14-10.71-2.62-14.58-7-3.44-3.91-4.25-9-2.33-14.15,5.3.37,10.47,1.32,14.83,4.68,4.72,3.63,6.06,10,3.58,15.9l-6.84-9.13-.4.29,6,9Z" transform="translate(-106.08 -239.04)"/><path class="cls-2" d="M285.41,428.29l-6.19-9.13-.42.26,5.72,9.61c-7.35-1.94-14-3.93-16.93-11.38a13.44,13.44,0,0,1,.15-9.61,1.44,1.44,0,0,1,1.1-.76c4.78.53,9.43,1.61,13.33,4.59A13,13,0,0,1,285.41,428.29Z" transform="translate(-106.08 -239.04)"/><path class="cls-2" d="M520.38,336.09l11.94-4-.15-.47-12,3.49c3.53-10.27,15.83-14.93,29.15-11-1.53,5.84-4.78,10.15-10.61,12.16C532.67,338.38,526.63,337.72,520.38,336.09Z" transform="translate(-106.08 -239.04)"/><path class="cls-2" d="M513.23,333.4c1.33-3.07,2.52-5.72,3.63-8.4a10.42,10.42,0,0,0,.68-2.89l-5.27,10.64c-4.43-4.69-5.28-11.42-1.94-16.12a22.33,22.33,0,0,1,10-7.5,2,2,0,0,1,1.33.29c.3.14.49.5.73.77,6.46,7.52,5.24,15-3.31,20.09C517.26,331.36,515.35,332.28,513.23,333.4Z" transform="translate(-106.08 -239.04)"/><path class="cls-2" d="M387.26,374l4.48-10.89-.4-.17-5.28,10.78c-4.83-5.66-5.4-12.32-.93-17.53A23.73,23.73,0,0,1,394,350a1.43,1.43,0,0,1,1.13,0c3.8,2.29,6.35,9.83,4.47,13.87a18,18,0,0,1-3.53,4.84A23.61,23.61,0,0,1,387.26,374Z" transform="translate(-106.08 -239.04)"/><path class="cls-2" d="M352,413.62c.4-3.64.8-7.38,1.21-11.13l-.43-.05c-.67,3.69-1.34,7.38-2,11.16-6.87-4.78-9.45-12.49-4.82-18.65a44.28,44.28,0,0,1,5.52-5.52,1.72,1.72,0,0,1,1.66-.14c2.22,2,4.65,4,6.4,6.37,2.37,3.24,2.26,6.91.24,10.44A19.51,19.51,0,0,1,352,413.62Z" transform="translate(-106.08 -239.04)"/><path class="cls-2" d="M320.93,400.06c5.6-.43,10.87-.42,15.79,2A14.59,14.59,0,0,1,345,417l-9.47-7.81-.28.33,8.75,8.07c-10.72.73-21.2-4.06-22.79-14.2C321,402.37,321,401.3,320.93,400.06Z" transform="translate(-106.08 -239.04)"/><path class="cls-2" d="M415.1,397.05c.75,3.43,1.5,6.85,2.34,10.66-3.85-2-7.22-3.78-9.72-6.9-4.38-5.49-2.87-12,1-16.9a1.43,1.43,0,0,1,1.34-.28,54.39,54.39,0,0,1,7.77,3.93c5.42,3.72,6.73,9.28,3.82,15.19a54.84,54.84,0,0,1-2.93,4.73l-3-10.59Z" transform="translate(-106.08 -239.04)"/><path class="cls-2" d="M426.78,407l8.19-8.72-.33-.33-8.81,8.47c-2-4.11-.86-10.45,2.19-13.59,4-4.14,9.08-6.14,14.63-7.07a1.74,1.74,0,0,1,1.41.83c3.19,6.85,1.1,13.18-5.5,16.84A31,31,0,0,1,426.78,407Z" transform="translate(-106.08 -239.04)"/><path class="cls-2" d="M375.9,578.88,367,587.31l.3.33,9.54-8.12A13.62,13.62,0,0,1,369.29,596c-3.38,1.62-7.19,2.34-10.84,3.35-.33.1-1.17-.59-1.34-1.06-2.41-6.85-.31-12.36,6.13-16A30.94,30.94,0,0,1,375.9,578.88Z" transform="translate(-106.08 -239.04)"/><path class="cls-2" d="M284.76,564.24c-3.11-7.47-.82-13.86,6.16-17.39a30.82,30.82,0,0,1,12.17-3.16l-8,7.57.34.35,8.73-7.38a14.52,14.52,0,0,1-.48,9.12,14.14,14.14,0,0,1-6.45,7.13A30.17,30.17,0,0,1,284.76,564.24Z" transform="translate(-106.08 -239.04)"/><path class="cls-2" d="M554.55,370.62l-1.18-10.49-.36.06v10.33c-10.29-5.25-13.19-15-4.47-23.65a1.64,1.64,0,0,1,1.49-.31c2.68,1.74,5.56,3.3,7.86,5.47,3.49,3.3,4.06,7.55,1.9,11.81A67.52,67.52,0,0,1,555,371Z" transform="translate(-106.08 -239.04)"/><path class="cls-2" d="M328.68,593.73c1.49,8.33-1.86,14.4-9.41,17.58a24.19,24.19,0,0,1-9.83,2.18c-3.42-6-1.27-13.07,5-16.61a32.65,32.65,0,0,1,13.17-3.7L319,601.31l.31.34Z" transform="translate(-106.08 -239.04)"/><path class="cls-2" d="M433.88,448.76c-11.29,4.42-24.47,2.13-30.21-8.65,12.25-6.85,25.33-3.05,30.66,7.76l-12.53-4.12-.15.43Z" transform="translate(-106.08 -239.04)"/><path class="cls-2" d="M292.91,426.68c2.34-3.85,4.25-7.36,5-11.37l-5.75,10.88c-4.49-5.3-4.57-12.61-.75-16.59,2.77-2.89,5.68-5.41,9.54-6.6a2.13,2.13,0,0,1,1.77.42,13,13,0,0,1,4.14,7.9,9.72,9.72,0,0,1-.62,4.83C303.87,421.89,298.8,424.44,292.91,426.68Z" transform="translate(-106.08 -239.04)"/><path class="cls-2" d="M481.11,378.15,468.39,374l-.15.43L480.57,379c-11.72,5-25.67.95-30.18-8.68C460.76,364.46,474.65,365.76,481.11,378.15Z" transform="translate(-106.08 -239.04)"/><path class="cls-2" d="M256.36,497.28c6.9-12.11,20.48-12.4,31.19-6.61l-14.08,2.14.06.41,14.37-1.64C282.82,500.59,266.71,503.45,256.36,497.28Z" transform="translate(-106.08 -239.04)"/><path class="cls-2" d="M318.86,394.84,304.69,393l-.06.37,14.13,2.41c-10,6.56-23.56,6-32-3.14C296.92,384,310.5,385.24,318.86,394.84Z" transform="translate(-106.08 -239.04)"/><path class="cls-2" d="M473.1,412.92c-6.66-.65-13.26-1.49-18.69-6-3.39-2.8-5-7.49-3.72-11.14,6.48,0,12.93.34,18.77,3.75,4.91,2.87,6.77,8.63,5.23,12.83-1.57-1.36-3.09-2.77-4.71-4.05a32.79,32.79,0,0,0-5.21-3.43l8.63,7.57Z" transform="translate(-106.08 -239.04)"/><path class="cls-2" d="M476.07,507.62c2.9,2.35,5.81,4.7,8.7,7.07.07,0,.07.2.18.55-7.27-.38-14.31-1.12-20-6.15a11.15,11.15,0,0,1-3.8-10c7.05-.13,13.93-.13,20.08,3.8a11.47,11.47,0,0,1,5.3,11.75l-10.28-7.32Z" transform="translate(-106.08 -239.04)"/><path class="cls-2" d="M572.64,286.37l-5.1-9.84-.43.2c1.37,3.12,2.74,6.24,4.16,9.49-11.34-2.45-18-10.52-13.58-20.72.53-1.21,1.13-1.54,2.28-1.08,3.14,1.23,6.47,2.13,9.39,3.77,4.57,2.58,6.34,7.08,5.24,12.22A56.49,56.49,0,0,1,572.64,286.37Z" transform="translate(-106.08 -239.04)"/><path class="cls-2" d="M444.68,243.1a29.64,29.64,0,0,1,10.56,3.83c5.22,3.39,7,8.07,5.19,14-.44,1.47-1.14,2.85-1.81,4.49-.89-2-1.59-3.76-2.46-5.43a26.07,26.07,0,0,0-3.05-4.63l4.5,10.2c-4.78-1.49-8.91-3.23-12-6.71C441.76,254.5,441.43,248.55,444.68,243.1Z" transform="translate(-106.08 -239.04)"/><path class="cls-2" d="M465.26,263.62c-4.44-9.12-1.4-16.53,8.15-20.66,1.57-.68,3.21-1.21,4.89-1.83a16.53,16.53,0,0,1,3.51,8.72,9.31,9.31,0,0,1-2.38,6.9c-3.47,3.93-8.08,5.83-13,7.14l6.1-9.49-.39-.24Z" transform="translate(-106.08 -239.04)"/><path class="cls-2" d="M580.39,284.74c1.67-2.59,3.34-5.17,5-7.78a3.69,3.69,0,0,0,.57-1.67l-6.73,9.15c-3.86-5.84-2.82-12.95,2.89-17.26,2.7-2,6.06-3.17,9.16-4.65a1.43,1.43,0,0,1,1.33.3c2.53,3.93,4.33,8,2.08,12.72a12.82,12.82,0,0,1-5.68,5.76c-2.75,1.46-5.67,2.6-8.51,3.88Z" transform="translate(-106.08 -239.04)"/><path class="cls-2" d="M322.15,637c6.05-11.88,19-12.68,30.16-7.28l-13,2.29.07.41,13.13-1.76C347,639.46,334.41,642.7,322.15,637Z" transform="translate(-106.08 -239.04)"/><path class="cls-2" d="M324.56,611.4c7.9-1.83,15.53-2.71,22.21,3.15a17.1,17.1,0,0,1,5.31,9.16l-11.59-6.11-.19.37,10.91,6.39C339,627.11,327.51,622.46,324.56,611.4Z" transform="translate(-106.08 -239.04)"/><path class="cls-2" d="M552.84,433.18l5.55,10.13.39-.21c-1.57-3.32-3.13-6.64-4.89-10.38,5.39,1.62,10,3.51,13.12,7.88s2.62,8.84.58,13.38a1.42,1.42,0,0,1-1.21.62,26.36,26.36,0,0,1-10.29-3.83c-5.2-3.63-6.72-8.69-4.51-14.71C552,435.06,552.43,434.11,552.84,433.18Z" transform="translate(-106.08 -239.04)"/><path class="cls-2" d="M556.86,428.09l13.22,3.58.1-.36-12.88-4.1c11.65-5.21,24.45-2.26,29.86,7.2C576,440.88,563.66,438.94,556.86,428.09Z" transform="translate(-106.08 -239.04)"/><path class="cls-2" d="M306.75,461.49l4.88-9.54-.4-.2-5.67,9.47c-5.05-7-3.51-13.33,1.48-17.44a44.7,44.7,0,0,1,7.63-4.52,2.05,2.05,0,0,1,1.88.5,20,20,0,0,1,2.59,4.05c2,4.36,1.26,8.37-2.08,11.83A24.17,24.17,0,0,1,306.75,461.49Z" transform="translate(-106.08 -239.04)"/><path class="cls-2" d="M441.35,615.81c-5-2-9.79-4.26-12.51-9.35-1.79-3.33-1.28-9.05,1.09-11.87a1.3,1.3,0,0,1,1-.42c4.75,1.43,9.53,2.92,12.76,7a11.16,11.16,0,0,1-.78,14.28L438.46,606l-.42.18,3.69,9.34Z" transform="translate(-106.08 -239.04)"/><path class="cls-2" d="M549.62,310.72c5.47-.37,10.65-.13,15.44,2.46a13.81,13.81,0,0,1,6.87,13.87l-9-7.69-.26.31q4.05,3.87,8.12,7.72l-.29.44c-7.14-.4-14-1.52-18.53-8.06A14.21,14.21,0,0,1,549.62,310.72Z" transform="translate(-106.08 -239.04)"/><path class="cls-2" d="M325.9,358.76l-13.15.69,0,.37H326.1c-8.57,8.59-21.39,8.59-30.33,2.28C303,352.11,315.84,351.6,325.9,358.76Z" transform="translate(-106.08 -239.04)"/><path class="cls-2" d="M424.76,297.32c7.43-1.14,16.28.79,19.92,6.42a15.7,15.7,0,0,1,2.34,9.79l-8.8-7.57,7.11,8c-10.31.67-20.54-4.94-20.65-15.45A11.89,11.89,0,0,1,424.76,297.32Z" transform="translate(-106.08 -239.04)"/><path class="cls-2" d="M463.44,361.27c-9.64,7-22.84,6.16-30.49-1.79a21.21,21.21,0,0,1,30.46.87l-12.71-1.14,0,.44Z" transform="translate(-106.08 -239.04)"/><path class="cls-2" d="M371.3,299.07c7.62-9.46,19.95-10.79,29.94-3.35l-12.83.83,0,.37h13.05C393.49,305.31,380.8,305.58,371.3,299.07Z" transform="translate(-106.08 -239.04)"/><path class="cls-2" d="M381.12,447.31,374,439.87l-.37.34,6.47,7.52c-10.39-.17-19.58-5.52-19.34-15.78,0-.7.16-1.4.26-2.24,5.74.14,11.28.51,16,4.21C380.76,436.87,382.64,443.06,381.12,447.31Z" transform="translate(-106.08 -239.04)"/><path class="cls-2" d="M390.33,433.93c-1.1,3.5-2.2,7-3.33,10.6-7.36-6.5-7.87-16.41,4.94-23.09a61.09,61.09,0,0,1,4.93,6.08c2.46,3.89,1.8,7.73-1,11.25a23.16,23.16,0,0,1-7.73,6l2.6-10.72Z" transform="translate(-106.08 -239.04)"/><path class="cls-2" d="M344.35,373.41c11.92-6.31,23.53-2.79,28.42,6.82l-10.56-3.38-.16.46L372.36,381C361.61,385.5,349.75,382.91,344.35,373.41Z" transform="translate(-106.08 -239.04)"/><path class="cls-2" d="M474.92,282.89c11.12-5.77,24.42-2.36,28.93,7.36l-10.66-3.55-.16.45L503.4,291C491.78,295.18,480,292.11,474.92,282.89Z" transform="translate(-106.08 -239.04)"/><path class="cls-2" d="M500,323c1.24,3.06,2.47,6.12,3.76,9.31-8-1.79-14.53-7.62-13.51-14.52a57.46,57.46,0,0,1,1.72-6.48,25,25,0,0,1,11.07,4.37c4.67,3.47,5.69,8.81,2.92,14.56-.33.68-.72,1.33-1.05,1.95-1.53-3.17-3-6.29-4.52-9.4Z" transform="translate(-106.08 -239.04)"/><path class="cls-2" d="M356.17,522.8c-2.74-2.48-5.41-4.9-8.07-7.33l-.05.06,7.55,7.62c-9.35.55-19.14-3.77-20.43-12.79-.16-1.17-.16-2.35-.23-3.51,8.2-1.27,16.29,1.37,19.34,6.5A15.09,15.09,0,0,1,356.17,522.8Z" transform="translate(-106.08 -239.04)"/><path class="cls-2" d="M386.2,396.51c6.9-1.24,13.64-1.62,19.48,3.3a14.58,14.58,0,0,1,4.94,9.85l-9.39-6-.2.34,8.43,6.2C400.29,412,387.7,408.4,386.2,396.51Z" transform="translate(-106.08 -239.04)"/><path class="cls-2" d="M250.53,424.58c11.2-5.82,23.19-2.51,28.14,7.68l-12.15-4.13-.13.36,11.72,4.56C266.88,437.3,255.19,434,250.53,424.58Z" transform="translate(-106.08 -239.04)"/><path class="cls-2" d="M339.58,422.19,326.5,420.6l0,.34,12.86,2.12c-9.23,6.73-22.52,5.07-29.29-2.75C319.89,412.05,332.17,413.86,339.58,422.19Z" transform="translate(-106.08 -239.04)"/><path class="cls-2" d="M377.82,490.73c-6.78-1.2-12.81-2.75-16.3-8.9a12.57,12.57,0,0,1-.76-10c5.49.31,10.83,1.09,15.17,5,3.29,3,4.41,8.93,2.64,13.11l-7.11-8.49-.32.25C373.27,484.62,375.41,487.49,377.82,490.73Z" transform="translate(-106.08 -239.04)"/><path class="cls-2" d="M354.3,528.21H341.58l0,.18,12.61.78c-4.64,7.24-22.22,7.26-29.39.13C334.14,519.6,346.35,521.48,354.3,528.21Z" transform="translate(-106.08 -239.04)"/><path class="cls-2" d="M462.77,579.23l11.06-2.75-.09-.46-11.39,2.38c4.95-10.31,16.87-11.8,27-8-1,5.64-6.07,10.08-12.61,10.82A30.52,30.52,0,0,1,462.77,579.23Z" transform="translate(-106.08 -239.04)"/><path class="cls-2" d="M330,554c-5,.76-9.93.94-14.61-1.14-5.55-2.47-8.06-7-8.56-13l7.13,5.26.33-.44-6.37-5.16C319.15,537.85,329.58,543.68,330,554Z" transform="translate(-106.08 -239.04)"/><path class="cls-2" d="M455.36,575.8c-5.22-6.7-4.06-13.85,2.68-18.22a16.51,16.51,0,0,1,2.49-1.4c4.52-1.9,3.56-2.17,6.2,1.85,3.75,5.69,2.67,10.83-3,14.61a71.17,71.17,0,0,1-7.48,3.87L461,566.45l-.34-.15C458.92,569.41,457.2,572.51,455.36,575.8Z" transform="translate(-106.08 -239.04)"/><path class="cls-2" d="M293.76,489.63l1.65,9.93.46-.07-1.05-10.14c4.34,2.52,8.08,5.08,9.36,9.89s-.88,8.46-3.83,11.86a1.38,1.38,0,0,1-1.19.43c-3.81-1.65-7.41-3.59-9.58-7.37a8.8,8.8,0,0,1-.59-7.26A17.07,17.07,0,0,1,293.76,489.63Z" transform="translate(-106.08 -239.04)"/><path class="cls-2" d="M440.05,449.76l-5.52,8.15.38.27,6.16-8c3.36,5.47,2.25,11.46-2,15.21a22.79,22.79,0,0,1-9.42,4.87,1.79,1.79,0,0,1-1.51-.63c-4.34-6.43-2.93-12.82,3.8-16.63a87.44,87.44,0,0,1,8-3.59Z" transform="translate(-106.08 -239.04)"/><path class="cls-2" d="M528.68,397.2,519,392l-.21.39,9.24,5.52C516.62,400,506,396.54,503.2,386,514.21,382,526.35,385.61,528.68,397.2Z" transform="translate(-106.08 -239.04)"/><path class="cls-2" d="M379.73,575.23l8.67,6.26.29-.37-8-6.33c10.14-1.71,21.55,3.44,22.1,14.43-5.05.79-10.06.91-14.87-1.18A13.86,13.86,0,0,1,379.73,575.23Z" transform="translate(-106.08 -239.04)"/><path class="cls-2" d="M475.49,401c-2.22-3.65-4.06-7-2.75-10.94a12.62,12.62,0,0,1,3-4.74c3-3,7-4.41,11.1-5.48l-5.75,8.53.37.24c2.1-2.76,4.21-5.52,6.37-8.34,3.78,6.29,1.89,13.33-4.64,17.16C480.79,398.85,478.14,399.81,475.49,401Z" transform="translate(-106.08 -239.04)"/><path class="cls-2" d="M331.33,589.47l8.32,6,.28-.39-7.53-6c9.23-1.44,21.07,2.5,22.15,14.18-11.1,2.81-21.42-1.5-23.05-11.91C331.41,590.77,331.39,590.18,331.33,589.47Z" transform="translate(-106.08 -239.04)"/><path class="cls-2" d="M555.36,375.55H541.79v.58h13.39c-7.51,7.57-20.53,8.28-29.24,1.32C532.3,368.82,545.8,367.84,555.36,375.55Z" transform="translate(-106.08 -239.04)"/><path class="cls-2" d="M554.61,285l10,5c-11.09,3.22-22.38-.69-25.53-10.4,11.59-4.73,23.26-.42,26.14,9.69l-10.39-4.7Z" transform="translate(-106.08 -239.04)"/><path class="cls-2" d="M451.44,268.33c-3.35-1.54-6.6-3-9.86-4.5l-.19.42,9.29,4.7c-9.65,3.18-21.82.09-25.43-10.23C436.05,254.21,447.71,257.15,451.44,268.33Z" transform="translate(-106.08 -239.04)"/><path class="cls-2" d="M290.8,386l-1.32-9.6-.45.07.66,9.59c-8-3.48-12-11.13-6.93-18.38,3.12-4.48,2.21-4,6.66-1.5a19.63,19.63,0,0,1,4.07,3.15,8.68,8.68,0,0,1,1.95,10.48,50.53,50.53,0,0,1-4.21,6.48Z" transform="translate(-106.08 -239.04)"/><path class="cls-2" d="M339.19,653.63c-2.75-6.44-.7-12.13,5.49-15.26,3.36-1.7,8-2.83,10.76-2.56L351.75,639l-3.53,3,.52.57,7.63-6.35c1.47,4,0,9.25-3.28,12.33A22.4,22.4,0,0,1,339.19,653.63Z" transform="translate(-106.08 -239.04)"/><path class="cls-2" d="M558.64,421.82l11-2.77-.1-.4L558.23,421c2-8,17.33-12.31,26.66-7.59C581,424.52,568.69,426.1,558.64,421.82Z" transform="translate(-106.08 -239.04)"/><path class="cls-2" d="M411.46,460.69l9.4,6.05-.1.42c-1.48-.1-3-.15-4.43-.3-5.66-.59-11.25-1.44-15.84-5.23a8.41,8.41,0,0,1-3.21-7.75c7.21-.12,14.34-.23,20.74,3.68,3.47,2.11,5,5.63,4.21,9l-10.6-6.2Z" transform="translate(-106.08 -239.04)"/><path class="cls-2" d="M423.25,583.55c-5.1-.26-10.06-1.06-14.16-4.47a12.8,12.8,0,0,1-4.68-11.7c6.08-.14,11.95-.07,16.63,4.44,3.13,3,4,6.83,3.62,11.15l-7.83-7-.15.16,6.83,7Z" transform="translate(-106.08 -239.04)"/><path class="cls-2" d="M404.62,630.34c-5.68-.47-11.25-1.31-15.46-5.73a13.06,13.06,0,0,1-3.42-10.48c5.43-.25,10.61,0,15.3,3.18,3.67,2.45,5.74,8.32,4.76,12l-7.16-6.26-.23.24,6.76,6.37Z" transform="translate(-106.08 -239.04)"/><path class="cls-2" d="M576,330.36l-8.54,4.88.22.4,8.83-4.56C576,341.48,564.9,346,555.2,344.56c-.93-5,2.07-10.29,7.1-12.5C566.6,330.16,571.12,330,576,330.36Z" transform="translate(-106.08 -239.04)"/><path class="cls-2" d="M406.44,348.65c.72,3.21,1.38,6.18,2.05,9.15l.42-.09c-.44-3-.88-6-1.34-9.06,5.31,2.05,10.53,7.1,9.67,12.94a14,14,0,0,1-3.38,7.15,1.37,1.37,0,0,1-1.16.46c-3.69-1.46-7.26-3.14-9.41-6.72-2.37-4-1.17-7.67,1.08-11.21A30,30,0,0,1,406.44,348.65Z" transform="translate(-106.08 -239.04)"/><path class="cls-2" d="M430.21,331c-.67-6.29,2.88-11.47,9.09-13.26a23.19,23.19,0,0,1,4.71-1c2.24-.17,4.5,0,7.05,0l-9,5.21.21.4,9.12-4.78C452.83,325.34,440.55,333.07,430.21,331Z" transform="translate(-106.08 -239.04)"/><path class="cls-2" d="M331.8,358.51c0,2.62,0,5.05,0,7.48a18,18,0,0,0,.47,2.54c.23-3.48.45-6.65.67-9.89a11.23,11.23,0,0,1,4.21,18c-3.67,4.07-2.61,3.86-7,.7-3.54-2.57-5.95-5.95-4.62-10.7C326.56,363.12,329,360.68,331.8,358.51Z" transform="translate(-106.08 -239.04)"/><path class="cls-2" d="M375.59,451.68l-12-2.43-.07.36,11.71,2.87c-8.16,4.78-20.23,4.23-26.93-4.58C357.61,441.19,369.05,442.79,375.59,451.68Z" transform="translate(-106.08 -239.04)"/><path class="cls-2" d="M408.27,306c0-1.71-.08-3.43,0-5.14s.4-3.26.62-4.95c9.76,5.73,8.21,14.74,1.39,20.34a1.5,1.5,0,0,1-1.39.17c-2.07-1.66-4.52-3.1-6-5.21-3.3-4.77-2.27-9.42,2.5-13.92.64-.6,1.35-1.13,2-1.68,0,1.77,0,3.49,0,5.21s.19,3.48.29,5.23Z" transform="translate(-106.08 -239.04)"/><path class="cls-2" d="M443.71,526.15l-4.56-7.48-.4.22,4.07,7.74c-5.57-1.52-10.5-3.21-13.18-8.46-1.57-3.09-1.27-6.23-.16-9.36a1.54,1.54,0,0,1,1.24-.8,21.69,21.69,0,0,1,9.88,3.36C445.48,514.74,446.67,520.56,443.71,526.15Z" transform="translate(-106.08 -239.04)"/><path class="cls-2" d="M324.24,450.06c4.3.62,8.46,1.56,11.86,4.44,3.92,3.32,4.65,8.62,2,13.85L333,460.21l-.37.21,4.46,8.18c-7.23-1.06-13.48-5.64-14.05-11.3A13.77,13.77,0,0,1,324.24,450.06Z" transform="translate(-106.08 -239.04)"/><path class="cls-2" d="M335,547.73a11.85,11.85,0,0,1,8.48-12.51c3.53-1.17,7.25-1.49,12.42-1-1.85.94-3.4,1.67-4.89,2.5a25.06,25.06,0,0,0-4.24,2.9l9.55-4.73C355.11,545.55,344,549.18,335,547.73Z" transform="translate(-106.08 -239.04)"/><path class="cls-2" d="M378.09,381.94l-4.71,7.25.37.25,5.36-7.25a10.56,10.56,0,0,1-1,13.42,19.6,19.6,0,0,1-9.18,5.21,1.64,1.64,0,0,1-1.36-.61c-4.07-5.72-3.08-11.38,2.85-15.12a67.47,67.47,0,0,1,7.47-3.58Z" transform="translate(-106.08 -239.04)"/><path class="cls-2" d="M283.78,434.13l-5.15,7.26.34.23,5.78-7.18c4.71,7.71-1.16,16.69-11.84,18.42-4.35-5.82-3.44-11.77,2.66-15.54,2.48-1.53,5.35-2.44,8-3.64Z" transform="translate(-106.08 -239.04)"/><path class="cls-2" d="M407.27,419.13l8.58-6.17a11.76,11.76,0,0,1-7.13,13c-3.06,1.3-6.49,1.78-9.78,2.5-.34.07-1.17-.67-1.28-1.14a10.42,10.42,0,0,1,5-11.87,23.87,23.87,0,0,1,12.32-3l-8,6.43Z" transform="translate(-106.08 -239.04)"/><path class="cls-2" d="M345.3,423c-.89,2.92-1.79,5.84-2.68,8.76l.38.13c1.11-2.9,2.22-5.8,3.36-8.8,5.29,5.3,5.69,11.82.08,16.81a10.7,10.7,0,0,1-.83.68c-5.06,3.61-4.27,3.68-8-1.15-3-3.8-2.64-8.24.8-11.63a71.9,71.9,0,0,1,6.63-5.23Z" transform="translate(-106.08 -239.04)"/><path class="cls-2" d="M506.77,336.18l-10.16,2.2.08.42L507.18,337c-5.1,9-17.06,10.52-25.58,6.34C485.73,333.56,496.42,331.68,506.77,336.18Z" transform="translate(-106.08 -239.04)"/><path class="cls-2" d="M509.1,292.88v9.17h.29l.67-9c8.92,5.46,9.55,14.11.91,20.08-3.84-2.43-8.19-4.61-8.44-9.95C502.31,298.5,505.59,295.7,509.1,292.88Z" transform="translate(-106.08 -239.04)"/><path class="cls-2" d="M433.38,487.64l-10.24,1.75.06.42,10.44-1.41c-4.48,7.56-15.65,10.12-25.41,5.35C412.44,484.3,423.73,482.66,433.38,487.64Z" transform="translate(-106.08 -239.04)"/><path class="cls-2" d="M424.3,478.2l8.19,4.84c-9.39,2.33-19.81-1.16-22.27-10.54,9.33-3.68,20.75-.64,22.92,9.94l-8.64-4.62Z" transform="translate(-106.08 -239.04)"/><path class="cls-2" d="M376.81,564.77c-4.51-6.64-3.21-12.87,3.3-16.89.35-.22.7-.45,1.07-.65,4.29-2.27,3.78-2.65,6.42,1.83s1.69,8.85-2.52,12c-2.19,1.63-4.69,2.84-7.42,4.46,1.43-3,2.58-5.51,3.71-8a5.25,5.25,0,0,0,.19-1.12c-1.52,2.7-2.95,5.23-4.38,7.75Z" transform="translate(-106.08 -239.04)"/><path class="cls-2" d="M570.23,291.27,564.14,298l.41.39,6.27-6.8c1.91,5,.78,9.6-2.73,12.69A21,21,0,0,1,558,308.76c-1,.19-1.37-.14-1.72-1-2.33-5.83-.7-10.53,4.85-13.52a23.46,23.46,0,0,1,4.09-1.76C566.75,292,568.39,291.7,570.23,291.27Z" transform="translate(-106.08 -239.04)"/><path class="cls-2" d="M565.83,381.92l4.42,7.69.35-.19-3.74-7.66c9,.23,15.21,9,12.06,16.75-.39,1-.86,1.34-1.84,1a56.57,56.57,0,0,1-7.07-2.41C564,394.15,562.31,387.64,565.83,381.92Z" transform="translate(-106.08 -239.04)"/><path class="cls-2" d="M329.72,579.1,333.5,571l-.33-.15c-1.49,2.67-3,5.34-4.48,8.06-3.84-4.35-3.59-9.9-.76-13.3a18.18,18.18,0,0,1,7.85-5.4,1.84,1.84,0,0,1,1.6.4c4.88,5.25,4.43,11.09-1.3,15.34a58.6,58.6,0,0,1-6.13,3.51Z" transform="translate(-106.08 -239.04)"/><path class="cls-2" d="M301.29,480.86l9.36-4.08-.15-.37-9.91,3.83c2.12-9.31,12.48-12.91,22.2-10.63,0,5.68-4.43,10.62-10.89,11.52-3.47.48-7.06.08-10.6.08Z" transform="translate(-106.08 -239.04)"/><path class="cls-2" d="M456.25,270.41l-6.11,6.77.21.2,6.47-6.86c2.46,4.83.71,10.52-3.75,13.68a22.73,22.73,0,0,1-8.87,3.55c-.92.19-1.35-.06-1.73-.95-2.36-5.53-.87-10.25,4.28-13.33A24.66,24.66,0,0,1,456.25,270.41Z" transform="translate(-106.08 -239.04)"/><path class="cls-2" d="M525.75,375.8c-8.7,8.26-19.52,6.51-26.27.08l11.41.63,0-.34-11.42-1.1A20.19,20.19,0,0,1,525.75,375.8Z" transform="translate(-106.08 -239.04)"/><path class="cls-2" d="M305.16,529.61c1.1-2.3,2.21-4.59,3.29-6.89a2.85,2.85,0,0,0,.22-1.38c-1.49,2.67-3,5.34-4.5,8.08-3.32-3.83-4.19-10,0-14a31.83,31.83,0,0,1,5.49-4.11c2.42-1.43,2.8-1.21,4.4,1.17,3.27,4.86,3,9.33-1.27,12.87-2.23,1.86-4.95,3.14-7.44,4.67Z" transform="translate(-106.08 -239.04)"/><path class="cls-2" d="M452.8,445.64l11.57.63,0-.33-11.54-1.08a20.1,20.1,0,0,1,26.17.67C471.17,453.36,460.12,452.61,452.8,445.64Z" transform="translate(-106.08 -239.04)"/><path class="cls-2" d="M415.22,539.6c-3.72-1.37-6.86-2.91-9.35-5.57-3.36-3.6-3.61-7.88-.5-13.13a22.1,22.1,0,0,1,10.71,5.2c2.78,2.41,3.39,6.54,1.75,10.38-.43,1-1.06,1.92-1.62,2.94-1-2.24-1.91-4.28-2.85-6.31a3.25,3.25,0,0,0-1.07-1.26Z" transform="translate(-106.08 -239.04)"/><path class="cls-2" d="M385.61,653.72c-.32-6.25,2.89-10.53,9.34-12.42a24.89,24.89,0,0,1,10.55-.62L397.55,645l.21.4,8.27-4C405.18,650.45,396.36,654.92,385.61,653.72Z" transform="translate(-106.08 -239.04)"/><path class="cls-2" d="M494.5,460.25,486,456.67l-.18.42L494,460.9c-8.7,3.12-19.68.31-22.88-8.45C481.39,447.89,491.38,451.37,494.5,460.25Z" transform="translate(-106.08 -239.04)"/><path class="cls-2" d="M497.75,456.78c-3.36-1.43-6.12-3-8.17-5.61-3.33-4.21-2.12-9.34.49-12.88a1.22,1.22,0,0,1,1.05-.35c3.29,1.1,6.49,2.39,8.81,5.15a7.54,7.54,0,0,1,1.73,7.31,65.45,65.45,0,0,1-2.56,6.15l-.56-.13c-.35-1.33-.64-2.68-1.07-4a15.77,15.77,0,0,0-1.81-3.86C496.32,451.18,497,453.78,497.75,456.78Z" transform="translate(-106.08 -239.04)"/><path class="cls-2" d="M381,452.42l-3.62,8,.38.17,4-7.51c4,4.59,3.83,10.41-.53,14.32a31.58,31.58,0,0,1-5.84,3.7,1.89,1.89,0,0,1-1.71-.43c-4.9-5.49-4.3-10.93,1.72-15.09C377,454.4,378.87,453.57,381,452.42Z" transform="translate(-106.08 -239.04)"/><path class="cls-2" d="M486.46,325.09c-10.23,4.53-20,.5-22.54-7.93l8,3.58.19-.4-7.51-3.72C473.42,313.52,483.65,316.92,486.46,325.09Z" transform="translate(-106.08 -239.04)"/><path class="cls-2" d="M588.75,330.67l7.47,3.4.21-.46-7.08-3.51c9.26-2.81,19.07.34,22,8.48C604.06,342.26,592.47,341.28,588.75,330.67Z" transform="translate(-106.08 -239.04)"/><path class="cls-2" d="M438.28,279.5c-2.5,9.89-13.4,11.69-22.11,8.46l9-2.76-.11-.38-9.5,2.5C419.48,278.54,429.72,276.41,438.28,279.5Z" transform="translate(-106.08 -239.04)"/><path class="cls-2" d="M416.59,337.05l-8.16,3.51c.35-7.54,11-13.07,20.31-10.72.16,5.65-3.69,10.28-10,11.38-3.17.55-6.47.38-9.71.54l-.07-.57,7.88-3.75Z" transform="translate(-106.08 -239.04)"/><path class="cls-2" d="M340.64,350.87l8.66-2.67-.11-.41-9.05,2.41c1.42-7.16,13.72-11.41,22.36-7.8C361.33,350.59,348.9,355.38,340.64,350.87Z" transform="translate(-106.08 -239.04)"/><path class="cls-2" d="M374.56,547.05c-4.05-.21-7.9-.77-11.25-3.11a10.06,10.06,0,0,1-3.46-12.06l3.8,4.85.39-.26-3.29-4.9C370.61,532,377,539.11,374.56,547.05Z" transform="translate(-106.08 -239.04)"/><path class="cls-2" d="M493.21,542.84l10.27,1.72.06-.34-9.86-2.05c6-3.93,17.79-4.43,24.46,3.23A18.11,18.11,0,0,1,493.21,542.84Z" transform="translate(-106.08 -239.04)"/><path class="cls-2" d="M436.25,492.57l-5.53,5.09.29.35,5.91-4.91c2.61,7.31-4,14-14.32,14.79A9.14,9.14,0,0,1,425.29,496,22.06,22.06,0,0,1,436.25,492.57Z" transform="translate(-106.08 -239.04)"/><path class="cls-2" d="M518.77,339.72l5.33,6.33.64-.62-5.43-5.74c9.65-.35,17.16,5.71,15.75,13.82-4.89.05-9.72-.09-13.63-3.73-2.86-2.65-3.42-6-3.18-9.66Z" transform="translate(-106.08 -239.04)"/><path class="cls-2" d="M427.63,411.31l8.19,2.46.13-.4-8-2.75c8.3-4.09,19.51-1.13,22.77,5.85C441.12,422,431.53,418.71,427.63,411.31Z" transform="translate(-106.08 -239.04)"/><path class="cls-2" d="M295.53,429.67c7.3-5.59,18.1-5,24.11.95-6.27,6.63-16.7,6.87-24-.17l9.93.75,0-.37Z" transform="translate(-106.08 -239.04)"/><path class="cls-2" d="M355.41,417.15l10.08-1.3-.05-.36-10.16.94c5.56-7.52,16.12-8.08,23.59-3.77C374.76,420.4,364.88,422.34,355.41,417.15Z" transform="translate(-106.08 -239.04)"/><path class="cls-2" d="M413.82,377.43c-6.31,6.89-16,7.1-24.1.58h10.86l-10.81-.86C396.28,371.29,407.47,371.48,413.82,377.43Z" transform="translate(-106.08 -239.04)"/><path class="cls-2" d="M267.1,400.12c7.56-5.89,18-4.81,23.57,2.68l-9.37-1.74-.08.38,9.23,2.1C282.92,408.08,273,407.15,267.1,400.12Z" transform="translate(-106.08 -239.04)"/><path class="cls-2" d="M491.48,270c-7.51,6.1-17.43,5-23.37-2.15l8.83,1.43.07-.42-8.63-1.72C475.92,262.28,486,263.49,491.48,270Z" transform="translate(-106.08 -239.04)"/><path class="cls-2" d="M409.55,638.45l3.8,4.87.4-.28c-1.1-1.59-2.19-3.19-3.34-4.86,6.82.43,12.32,4,13.47,9s.24,6.31-4.78,5.27a19.56,19.56,0,0,1-5.64-2.09A9.38,9.38,0,0,1,409.55,638.45Z" transform="translate(-106.08 -239.04)"/><path class="cls-2" d="M582,288.15c8.39-4.87,17.57-3.55,23.26,2.82A16.16,16.16,0,0,1,582,288.9l9.38,1.48.06-.37Z" transform="translate(-106.08 -239.04)"/><path class="cls-2" d="M357.45,622.9l3.15-6.47-.36-.18c-1.24,2.17-2.48,4.34-3.77,6.58-3.9-5.2-3.15-10.58,1.93-14.33,1.19-.87,2.6-1.44,3.85-2.23s2-.38,2.56.75a23.24,23.24,0,0,1,2.27,4.79,6.62,6.62,0,0,1-2.37,6.91c-2.17,1.76-4.65,3.14-7,4.69Z" transform="translate(-106.08 -239.04)"/><path class="cls-2" d="M492.1,465.19,483,466.41l.05.38,9.27-.84c-3,6.33-15.1,8.28-22.55,3.72C474.3,460.85,485.43,461,492.1,465.19Z" transform="translate(-106.08 -239.04)"/><path class="cls-2" d="M345.17,471.34c-.84-8.69,7.4-12.89,15.16-12.54a8.75,8.75,0,0,1-4.45,10.85c-3,1.64-6.37,2.06-10,2.19l5.91-4.6-.25-.34Z" transform="translate(-106.08 -239.04)"/><path class="cls-2" d="M444.17,535.69c4,4.51,2.93,10.46-2.23,13.95-.29.2-.61.37-.92.55-3.66,2.23-4.31,2-6.18-1.81-1.63-3.38-1.15-6.63,1.73-9a70.26,70.26,0,0,1,6.43-4.27l.37.43c-.61,1.11-1.28,2.2-1.81,3.35a18.38,18.38,0,0,0-1.23,3.69Z" transform="translate(-106.08 -239.04)"/><path class="cls-2" d="M466,516.5c1.32,6.15-1.16,10.26-7.37,12a67.56,67.56,0,0,1-6.7,1.22l-.11-.45,5.85-4.47-.2-.3L451,528.91C449.32,522.23,456.88,516.08,466,516.5Z" transform="translate(-106.08 -239.04)"/><path class="cls-2" d="M460.85,582.73l5.14,5.41.32-.29-4.71-5.42c9.31.5,15.35,6.45,14,13.27C467.12,597.4,459.2,590.52,460.85,582.73Z" transform="translate(-106.08 -239.04)"/><path class="cls-2" d="M440.16,489.52c9.59-.79,15.9,3.47,16.32,10.51-8,3.11-16.68-2-17.35-10.25l6.52,4.63.21-.29Z" transform="translate(-106.08 -239.04)"/><path class="cls-2" d="M535.27,400l3-6.19-.35-.19c-1.17,2.08-2.33,4.17-3.54,6.32-3.32-4-3.14-9,.55-12.25a29.47,29.47,0,0,1,5.24-3.33,1.61,1.61,0,0,1,1.44.32c4.15,4.16,3.62,9.71-1.26,12.95-1.56,1-3.27,1.82-4.91,2.73Z" transform="translate(-106.08 -239.04)"/><path class="cls-2" d="M497.7,464.58c4.36,1.91,7.36,5.86,6.64,9.27-.45,2.11-1.8,4-2.83,6a1.41,1.41,0,0,1-1.15.58c-2.67-.34-6.84-4.44-7.37-7.16s.78-5.77,3.86-8.64c.29,2.11.58,4.15.86,6.2l.4,0C498,468.79,497.84,466.79,497.7,464.58Z" transform="translate(-106.08 -239.04)"/><path class="cls-2" d="M410.44,630.26c-1.82-4.81-.44-9.52,4.52-12a32.62,32.62,0,0,1,5.89-2c.34-.1,1.09.37,1.27.75a7.69,7.69,0,0,1-2.79,10.2,19.13,19.13,0,0,1-8.45,2.91l4.82-5.23-.48-.47Z" transform="translate(-106.08 -239.04)"/><path class="cls-2" d="M437.92,481.8l2.67-5.5-.34-.17-3.15,5.54c-3-3.54-2.8-8.06.44-11a20.15,20.15,0,0,1,3.35-2.35c2.24-1.29,2.48-1.18,3.87,1.08,2.36,3.87,1.74,7.33-1.94,10a51.22,51.22,0,0,1-4.73,2.71Z" transform="translate(-106.08 -239.04)"/><path class="cls-2" d="M518.43,450.32c-.91,7.5-8.42,9.83-15.8,7.91l5.22-2.12-.14-.38-5.5,1.94C503.55,451,511.68,448.53,518.43,450.32Z" transform="translate(-106.08 -239.04)"/><path class="cls-3" d="M818.87,683.17c-5-2-9.79-4.26-12.51-9.35-1.79-3.33-1.28-9.06,1.09-11.87a1.3,1.3,0,0,1,1-.42c4.75,1.43,9.53,2.92,12.76,7a11.17,11.17,0,0,1-.78,14.29L816,673.32l-.42.19,3.69,9.34Z" transform="translate(-106.08 -239.04)"/><path class="cls-3" d="M820.09,377.21c1.26-3.93,2.36-7.35,3.45-10.78a3.92,3.92,0,0,0,.05-.87l-4.93,10.85c-.79-1.39-1.52-2.56-2.13-3.79-2-4-3-8.05-1.23-12.36,1.94-4.59,5.88-6.85,10.33-8.39a1.4,1.4,0,0,1,1.21.37c2.5,3.14,4.73,6.43,5.36,10.53.73,4.67-1.3,8.16-5,10.68A67.74,67.74,0,0,1,820.09,377.21Z" transform="translate(-106.08 -239.04)"/><path class="cls-3" d="M781.91,543.18l13-3.22-.1-.39-13.67,2.63c2-5.27,5.19-8.89,10.38-10.31,6-1.64,11.81-.38,17.42,1.89a1.74,1.74,0,0,1,.57,1.51,13.15,13.15,0,0,1-13,11.07A33.07,33.07,0,0,1,781.91,543.18Z" transform="translate(-106.08 -239.04)"/><path class="cls-3" d="M741.37,281.62c5.13,1.92,9.75,4.28,13,8.63a13.82,13.82,0,0,1,.52,15.47c-1.68-3.59-3.36-7.16-5-10.74l-.36.17,4.2,10.39-.45.28c-6.33-3.32-12.11-7.17-13.53-15A14.12,14.12,0,0,1,741.37,281.62Z" transform="translate(-106.08 -239.04)"/><path class="cls-3" d="M661.18,415.68l-9.79.91,0,.46,9.94-.5c-4.74,9.27-16.72,8.79-25,3.46,1.22-4.9,6.14-8.5,11.64-8.44C652.73,411.63,656.92,413.32,661.18,415.68Z" transform="translate(-106.08 -239.04)"/><path class="cls-3" d="M816.71,464.36l5.39,6.18.38-.33-5-6.12c9.58,1.27,17.22,8.2,16.54,16.84C825.84,481.24,815.7,475.55,816.71,464.36Z" transform="translate(-106.08 -239.04)"/><path class="cls-3" d="M841.29,561.76c-5.22-6.71-4.06-13.86,2.68-18.22a16.51,16.51,0,0,1,2.49-1.4c4.52-1.91,3.56-2.17,6.2,1.84,3.75,5.69,2.67,10.83-3,14.62a72,72,0,0,1-7.47,3.86c1.72-3.7,3.21-6.87,4.7-10.05l-.34-.15C844.86,555.36,843.13,558.46,841.29,561.76Z" transform="translate(-106.08 -239.04)"/><path class="cls-3" d="M784.42,618.13c-5.09-.27-10.06-1.07-14.15-4.47A12.82,12.82,0,0,1,765.59,602c6.07-.13,11.95-.07,16.63,4.44,3.12,3,4,6.84,3.61,11.15l-7.83-7-.14.16,6.82,7Z" transform="translate(-106.08 -239.04)"/><line class="cls-4" x1="717.39" y1="66.56" x2="763.34" y2="5.96"/><line class="cls-4" x1="762.92" y1="5.94" x2="891.34" y2="5.94"/><circle class="cls-5" cx="717.27" cy="67.58" r="5.3"/><line class="cls-4" x1="173.96" y1="62.12" x2="128.01" y2="1.51"/><line class="cls-4" x1="128.42" y1="1.5" y2="1.5"/><circle class="cls-5" cx="174.07" cy="63.14" r="5.3"/></svg>