<svg id="visual" viewBox="0 0 900 100" width="900" height="100" xmlns="http://www.w3.org/2000/svg" xmlns:xlink="http://www.w3.org/1999/xlink" version="1.1"><rect x="0" y="0" width="900" height="100" fill="#212529"></rect><path d="M0 75L13.7 73.3C27.3 71.7 54.7 68.3 82 66.2C109.3 64 136.7 63 163.8 64.2C191 65.3 218 68.7 245.2 69.8C272.3 71 299.7 70 327 68C354.3 66 381.7 63 409 61.2C436.3 59.3 463.7 58.7 491 61.5C518.3 64.3 545.7 70.7 573 72.3C600.3 74 627.7 71 654.8 70.2C682 69.3 709 70.7 736.2 71.3C763.3 72 790.7 72 818 72.5C845.3 73 872.7 74 886.3 74.5L900 75L900 0L886.3 0C872.7 0 845.3 0 818 0C790.7 0 763.3 0 736.2 0C709 0 682 0 654.8 0C627.7 0 600.3 0 573 0C545.7 0 518.3 0 491 0C463.7 0 436.3 0 409 0C381.7 0 354.3 0 327 0C299.7 0 272.3 0 245.2 0C218 0 191 0 163.8 0C136.7 0 109.3 0 82 0C54.7 0 27.3 0 13.7 0L0 0Z" fill="#27668d"></path><path d="M0 62L13.7 60.2C27.3 58.3 54.7 54.7 82 53.5C109.3 52.3 136.7 53.7 163.8 56C191 58.3 218 61.7 245.2 60.8C272.3 60 299.7 55 327 55.3C354.3 55.7 381.7 61.3 409 60.5C436.3 59.7 463.7 52.3 491 50.7C518.3 49 545.7 53 573 55.7C600.3 58.3 627.7 59.7 654.8 58.3C682 57 709 53 736.2 53.2C763.3 53.3 790.7 57.7 818 58.8C845.3 60 872.7 58 886.3 57L900 56L900 0L886.3 0C872.7 0 845.3 0 818 0C790.7 0 763.3 0 736.2 0C709 0 682 0 654.8 0C627.7 0 600.3 0 573 0C545.7 0 518.3 0 491 0C463.7 0 436.3 0 409 0C381.7 0 354.3 0 327 0C299.7 0 272.3 0 245.2 0C218 0 191 0 163.8 0C136.7 0 109.3 0 82 0C54.7 0 27.3 0 13.7 0L0 0Z" fill="#1a7498"></path><path d="M0 50L13.7 49.3C27.3 48.7 54.7 47.3 82 47.2C109.3 47 136.7 48 163.8 47.3C191 46.7 218 44.3 245.2 43C272.3 41.7 299.7 41.3 327 40.7C354.3 40 381.7 39 409 41.8C436.3 44.7 463.7 51.3 491 54.8C518.3 58.3 545.7 58.7 573 57.7C600.3 56.7 627.7 54.3 654.8 52.8C682 51.3 709 50.7 736.2 50C763.3 49.3 790.7 48.7 818 48.3C845.3 48 872.7 48 886.3 48L900 48L900 0L886.3 0C872.7 0 845.3 0 818 0C790.7 0 763.3 0 736.2 0C709 0 682 0 654.8 0C627.7 0 600.3 0 573 0C545.7 0 518.3 0 491 0C463.7 0 436.3 0 409 0C381.7 0 354.3 0 327 0C299.7 0 272.3 0 245.2 0C218 0 191 0 163.8 0C136.7 0 109.3 0 82 0C54.7 0 27.3 0 13.7 0L0 0Z" fill="#0883a1"></path><path d="M0 34L13.7 34.2C27.3 34.3 54.7 34.7 82 34.7C109.3 34.7 136.7 34.3 163.8 35C191 35.7 218 37.3 245.2 37.3C272.3 37.3 299.7 35.7 327 34.7C354.3 33.7 381.7 33.3 409 34.8C436.3 36.3 463.7 39.7 491 39.8C518.3 40 545.7 37 573 38.2C600.3 39.3 627.7 44.7 654.8 44.8C682 45 709 40 736.2 40C763.3 40 790.7 45 818 46.8C845.3 48.7 872.7 47.3 886.3 46.7L900 46L900 0L886.3 0C872.7 0 845.3 0 818 0C790.7 0 763.3 0 736.2 0C709 0 682 0 654.8 0C627.7 0 600.3 0 573 0C545.7 0 518.3 0 491 0C463.7 0 436.3 0 409 0C381.7 0 354.3 0 327 0C299.7 0 272.3 0 245.2 0C218 0 191 0 163.8 0C136.7 0 109.3 0 82 0C54.7 0 27.3 0 13.7 0L0 0Z" fill="#0091a8"></path><path d="M0 34L13.7 32.7C27.3 31.3 54.7 28.7 82 28.8C109.3 29 136.7 32 163.8 34.5C191 37 218 39 245.2 37.3C272.3 35.7 299.7 30.3 327 30.3C354.3 30.3 381.7 35.7 409 36.7C436.3 37.7 463.7 34.3 491 32.2C518.3 30 545.7 29 573 30.3C600.3 31.7 627.7 35.3 654.8 35.7C682 36 709 33 736.2 33.2C763.3 33.3 790.7 36.7 818 36.7C845.3 36.7 872.7 33.3 886.3 31.7L900 30L900 0L886.3 0C872.7 0 845.3 0 818 0C790.7 0 763.3 0 736.2 0C709 0 682 0 654.8 0C627.7 0 600.3 0 573 0C545.7 0 518.3 0 491 0C463.7 0 436.3 0 409 0C381.7 0 354.3 0 327 0C299.7 0 272.3 0 245.2 0C218 0 191 0 163.8 0C136.7 0 109.3 0 82 0C54.7 0 27.3 0 13.7 0L0 0Z" fill="#009fad"></path><path d="M0 23L13.7 23.7C27.3 24.3 54.7 25.7 82 26.7C109.3 27.7 136.7 28.3 163.8 27.7C191 27 218 25 245.2 24.7C272.3 24.3 299.7 25.7 327 27.2C354.3 28.7 381.7 30.3 409 31C436.3 31.7 463.7 31.3 491 31C518.3 30.7 545.7 30.3 573 30.5C600.3 30.7 627.7 31.3 654.8 30.3C682 29.3 709 26.7 736.2 25.7C763.3 24.7 790.7 25.3 818 25C845.3 24.7 872.7 23.3 886.3 22.7L900 22L900 0L886.3 0C872.7 0 845.3 0 818 0C790.7 0 763.3 0 736.2 0C709 0 682 0 654.8 0C627.7 0 600.3 0 573 0C545.7 0 518.3 0 491 0C463.7 0 436.3 0 409 0C381.7 0 354.3 0 327 0C299.7 0 272.3 0 245.2 0C218 0 191 0 163.8 0C136.7 0 109.3 0 82 0C54.7 0 27.3 0 13.7 0L0 0Z" fill="#00adac"></path><path d="M0 13L13.7 13.3C27.3 13.7 54.7 14.3 82 15.7C109.3 17 136.7 19 163.8 19C191 19 218 17 245.2 16.2C272.3 15.3 299.7 15.7 327 16.8C354.3 18 381.7 20 409 20.7C436.3 21.3 463.7 20.7 491 19.7C518.3 18.7 545.7 17.3 573 17.7C600.3 18 627.7 20 654.8 20.8C682 21.7 709 21.3 736.2 19.8C763.3 18.3 790.7 15.7 818 14.3C845.3 13 872.7 13 886.3 13L900 13L900 0L886.3 0C872.7 0 845.3 0 818 0C790.7 0 763.3 0 736.2 0C709 0 682 0 654.8 0C627.7 0 600.3 0 573 0C545.7 0 518.3 0 491 0C463.7 0 436.3 0 409 0C381.7 0 354.3 0 327 0C299.7 0 272.3 0 245.2 0C218 0 191 0 163.8 0C136.7 0 109.3 0 82 0C54.7 0 27.3 0 13.7 0L0 0Z" fill="#00bba6"></path><path d="M0 10L13.7 9.7C27.3 9.3 54.7 8.7 82 9.3C109.3 10 136.7 12 163.8 11.8C191 11.7 218 9.3 245.2 8.7C272.3 8 299.7 9 327 9.2C354.3 9.3 381.7 8.7 409 8.8C436.3 9 463.7 10 491 10.8C518.3 11.7 545.7 12.3 573 12.5C600.3 12.7 627.7 12.3 654.8 11.2C682 10 709 8 736.2 7.8C763.3 7.7 790.7 9.3 818 10.3C845.3 11.3 872.7 11.7 886.3 11.8L900 12L900 0L886.3 0C872.7 0 845.3 0 818 0C790.7 0 763.3 0 736.2 0C709 0 682 0 654.8 0C627.7 0 600.3 0 573 0C545.7 0 518.3 0 491 0C463.7 0 436.3 0 409 0C381.7 0 354.3 0 327 0C299.7 0 272.3 0 245.2 0C218 0 191 0 163.8 0C136.7 0 109.3 0 82 0C54.7 0 27.3 0 13.7 0L0 0Z" fill="#28c79b"></path></svg>