<svg id="visual" viewBox="0 0 960 300" width="960" height="300" xmlns="http://www.w3.org/2000/svg" xmlns:xlink="http://www.w3.org/1999/xlink" version="1.1"><rect x="0" y="0" width="960" height="300" fill="#212529"></rect><path d="M0 80L17.8 81.7C35.7 83.3 71.3 86.7 106.8 87.2C142.3 87.7 177.7 85.3 213.2 86.5C248.7 87.7 284.3 92.3 320 92.3C355.7 92.3 391.3 87.7 426.8 85.8C462.3 84 497.7 85 533.2 87.8C568.7 90.7 604.3 95.3 640 97.7C675.7 100 711.3 100 746.8 101.2C782.3 102.3 817.7 104.7 853.2 108.8C888.7 113 924.3 119 942.2 122L960 125L960 0L942.2 0C924.3 0 888.7 0 853.2 0C817.7 0 782.3 0 746.8 0C711.3 0 675.7 0 640 0C604.3 0 568.7 0 533.2 0C497.7 0 462.3 0 426.8 0C391.3 0 355.7 0 320 0C284.3 0 248.7 0 213.2 0C177.7 0 142.3 0 106.8 0C71.3 0 35.7 0 17.8 0L0 0Z" fill="#27668d"></path><path d="M0 106L17.8 104.2C35.7 102.3 71.3 98.7 106.8 92.7C142.3 86.7 177.7 78.3 213.2 79.5C248.7 80.7 284.3 91.3 320 96.3C355.7 101.3 391.3 100.7 426.8 99.8C462.3 99 497.7 98 533.2 92.5C568.7 87 604.3 77 640 77.3C675.7 77.7 711.3 88.3 746.8 90.3C782.3 92.3 817.7 85.7 853.2 80.8C888.7 76 924.3 73 942.2 71.5L960 70L960 0L942.2 0C924.3 0 888.7 0 853.2 0C817.7 0 782.3 0 746.8 0C711.3 0 675.7 0 640 0C604.3 0 568.7 0 533.2 0C497.7 0 462.3 0 426.8 0C391.3 0 355.7 0 320 0C284.3 0 248.7 0 213.2 0C177.7 0 142.3 0 106.8 0C71.3 0 35.7 0 17.8 0L0 0Z" fill="#147a9c"></path><path d="M0 65L17.8 63C35.7 61 71.3 57 106.8 60.7C142.3 64.3 177.7 75.7 213.2 75.2C248.7 74.7 284.3 62.3 320 56.3C355.7 50.3 391.3 50.7 426.8 52.8C462.3 55 497.7 59 533.2 63.7C568.7 68.3 604.3 73.7 640 77C675.7 80.3 711.3 81.7 746.8 81.5C782.3 81.3 817.7 79.7 853.2 78.2C888.7 76.7 924.3 75.3 942.2 74.7L960 74L960 0L942.2 0C924.3 0 888.7 0 853.2 0C817.7 0 782.3 0 746.8 0C711.3 0 675.7 0 640 0C604.3 0 568.7 0 533.2 0C497.7 0 462.3 0 426.8 0C391.3 0 355.7 0 320 0C284.3 0 248.7 0 213.2 0C177.7 0 142.3 0 106.8 0C71.3 0 35.7 0 17.8 0L0 0Z" fill="#008ea7"></path><path d="M0 46L17.8 44.7C35.7 43.3 71.3 40.7 106.8 43.7C142.3 46.7 177.7 55.3 213.2 56.7C248.7 58 284.3 52 320 48.5C355.7 45 391.3 44 426.8 44.2C462.3 44.3 497.7 45.7 533.2 49.2C568.7 52.7 604.3 58.3 640 57.2C675.7 56 711.3 48 746.8 45.2C782.3 42.3 817.7 44.7 853.2 45.7C888.7 46.7 924.3 46.3 942.2 46.2L960 46L960 0L942.2 0C924.3 0 888.7 0 853.2 0C817.7 0 782.3 0 746.8 0C711.3 0 675.7 0 640 0C604.3 0 568.7 0 533.2 0C497.7 0 462.3 0 426.8 0C391.3 0 355.7 0 320 0C284.3 0 248.7 0 213.2 0C177.7 0 142.3 0 106.8 0C71.3 0 35.7 0 17.8 0L0 0Z" fill="#00a2ad"></path><path d="M0 34L17.8 36C35.7 38 71.3 42 106.8 42C142.3 42 177.7 38 213.2 34.8C248.7 31.7 284.3 29.3 320 31C355.7 32.7 391.3 38.3 426.8 38.2C462.3 38 497.7 32 533.2 32.3C568.7 32.7 604.3 39.3 640 42.5C675.7 45.7 711.3 45.3 746.8 45.3C782.3 45.3 817.7 45.7 853.2 42.3C888.7 39 924.3 32 942.2 28.5L960 25L960 0L942.2 0C924.3 0 888.7 0 853.2 0C817.7 0 782.3 0 746.8 0C711.3 0 675.7 0 640 0C604.3 0 568.7 0 533.2 0C497.7 0 462.3 0 426.8 0C391.3 0 355.7 0 320 0C284.3 0 248.7 0 213.2 0C177.7 0 142.3 0 106.8 0C71.3 0 35.7 0 17.8 0L0 0Z" fill="#00b5a9"></path><path d="M0 32L17.8 29.2C35.7 26.3 71.3 20.7 106.8 20.3C142.3 20 177.7 25 213.2 25C248.7 25 284.3 20 320 19.3C355.7 18.7 391.3 22.3 426.8 25C462.3 27.7 497.7 29.3 533.2 30.2C568.7 31 604.3 31 640 29.8C675.7 28.7 711.3 26.3 746.8 23.3C782.3 20.3 817.7 16.7 853.2 16.8C888.7 17 924.3 21 942.2 23L960 25L960 0L942.2 0C924.3 0 888.7 0 853.2 0C817.7 0 782.3 0 746.8 0C711.3 0 675.7 0 640 0C604.3 0 568.7 0 533.2 0C497.7 0 462.3 0 426.8 0C391.3 0 355.7 0 320 0C284.3 0 248.7 0 213.2 0C177.7 0 142.3 0 106.8 0C71.3 0 35.7 0 17.8 0L0 0Z" fill="#28c79b"></path></svg>