<svg id="visual" viewBox="0 0 900 100" width="900" height="100" xmlns="http://www.w3.org/2000/svg" xmlns:xlink="http://www.w3.org/1999/xlink" version="1.1"><rect x="0" y="0" width="900" height="100" fill="#212529"></rect><path d="M0 79L21.5 77.2C43 75.3 86 71.7 128.8 70.7C171.7 69.7 214.3 71.3 257.2 70.3C300 69.3 343 65.7 385.8 67.3C428.7 69 471.3 76 514.2 74.7C557 73.3 600 63.7 642.8 62.3C685.7 61 728.3 68 771.2 72.8C814 77.7 857 80.3 878.5 81.7L900 83L900 0L878.5 0C857 0 814 0 771.2 0C728.3 0 685.7 0 642.8 0C600 0 557 0 514.2 0C471.3 0 428.7 0 385.8 0C343 0 300 0 257.2 0C214.3 0 171.7 0 128.8 0C86 0 43 0 21.5 0L0 0Z" fill="#27668d"></path><path d="M0 69L21.5 64.7C43 60.3 86 51.7 128.8 48.8C171.7 46 214.3 49 257.2 52.3C300 55.7 343 59.3 385.8 60.8C428.7 62.3 471.3 61.7 514.2 59.7C557 57.7 600 54.3 642.8 52.8C685.7 51.3 728.3 51.7 771.2 54C814 56.3 857 60.7 878.5 62.8L900 65L900 0L878.5 0C857 0 814 0 771.2 0C728.3 0 685.7 0 642.8 0C600 0 557 0 514.2 0C471.3 0 428.7 0 385.8 0C343 0 300 0 257.2 0C214.3 0 171.7 0 128.8 0C86 0 43 0 21.5 0L0 0Z" fill="#1e7095"></path><path d="M0 40L21.5 39.2C43 38.3 86 36.7 128.8 36.3C171.7 36 214.3 37 257.2 40.8C300 44.7 343 51.3 385.8 53.7C428.7 56 471.3 54 514.2 51.2C557 48.3 600 44.7 642.8 42.3C685.7 40 728.3 39 771.2 41C814 43 857 48 878.5 50.5L900 53L900 0L878.5 0C857 0 814 0 771.2 0C728.3 0 685.7 0 642.8 0C600 0 557 0 514.2 0C471.3 0 428.7 0 385.8 0C343 0 300 0 257.2 0C214.3 0 171.7 0 128.8 0C86 0 43 0 21.5 0L0 0Z" fill="#13799c"></path><path d="M0 34L21.5 34.2C43 34.3 86 34.7 128.8 36C171.7 37.3 214.3 39.7 257.2 40.5C300 41.3 343 40.7 385.8 41.7C428.7 42.7 471.3 45.3 514.2 43.5C557 41.7 600 35.3 642.8 32.2C685.7 29 728.3 29 771.2 32.7C814 36.3 857 43.7 878.5 47.3L900 51L900 0L878.5 0C857 0 814 0 771.2 0C728.3 0 685.7 0 642.8 0C600 0 557 0 514.2 0C471.3 0 428.7 0 385.8 0C343 0 300 0 257.2 0C214.3 0 171.7 0 128.8 0C86 0 43 0 21.5 0L0 0Z" fill="#0283a2"></path><path d="M0 39L21.5 38.3C43 37.7 86 36.3 128.8 33.7C171.7 31 214.3 27 257.2 27.5C300 28 343 33 385.8 36C428.7 39 471.3 40 514.2 38C557 36 600 31 642.8 28.5C685.7 26 728.3 26 771.2 28C814 30 857 34 878.5 36L900 38L900 0L878.5 0C857 0 814 0 771.2 0C728.3 0 685.7 0 642.8 0C600 0 557 0 514.2 0C471.3 0 428.7 0 385.8 0C343 0 300 0 257.2 0C214.3 0 171.7 0 128.8 0C86 0 43 0 21.5 0L0 0Z" fill="#008ca7"></path><path d="M0 12L21.5 14.5C43 17 86 22 128.8 23.7C171.7 25.3 214.3 23.7 257.2 24C300 24.3 343 26.7 385.8 25.5C428.7 24.3 471.3 19.7 514.2 19.3C557 19 600 23 642.8 24.3C685.7 25.7 728.3 24.3 771.2 24.2C814 24 857 25 878.5 25.5L900 26L900 0L878.5 0C857 0 814 0 771.2 0C728.3 0 685.7 0 642.8 0C600 0 557 0 514.2 0C471.3 0 428.7 0 385.8 0C343 0 300 0 257.2 0C214.3 0 171.7 0 128.8 0C86 0 43 0 21.5 0L0 0Z" fill="#0096aa"></path><path d="M0 18L21.5 17.2C43 16.3 86 14.7 128.8 12.7C171.7 10.7 214.3 8.3 257.2 8.7C300 9 343 12 385.8 12.2C428.7 12.3 471.3 9.7 514.2 9.3C557 9 600 11 642.8 11.2C685.7 11.3 728.3 9.7 771.2 9.3C814 9 857 10 878.5 10.5L900 11L900 0L878.5 0C857 0 814 0 771.2 0C728.3 0 685.7 0 642.8 0C600 0 557 0 514.2 0C471.3 0 428.7 0 385.8 0C343 0 300 0 257.2 0C214.3 0 171.7 0 128.8 0C86 0 43 0 21.5 0L0 0Z" fill="#009fad"></path></svg>