<svg width="142.11" height="26.31" viewBox="0 0 142.11 26.31" xmlns="http://www.w3.org/2000/svg"><g id="svgGroup" stroke-linecap="round" fill-rule="evenodd" font-size="9pt" stroke="#000" stroke-width="0.25mm" fill="none" style="stroke:#000;stroke-width:0.25mm;fill:none"><path d="M 0 17.49 L 1.5 15.75 Q 2.55 16.86 3.975 17.535 Q 5.4 18.21 6.93 18.21 A 6.911 6.911 0 0 0 8.116 18.115 Q 9.234 17.92 9.96 17.325 A 2.827 2.827 0 0 0 11.031 15.265 A 3.643 3.643 0 0 0 11.04 15 A 3.685 3.685 0 0 0 10.998 14.428 Q 10.948 14.11 10.839 13.845 A 2.137 2.137 0 0 0 10.785 13.725 Q 10.53 13.2 10.095 12.825 A 4.551 4.551 0 0 0 9.52 12.406 A 5.768 5.768 0 0 0 9.06 12.15 Q 8.46 11.85 7.77 11.52 L 4.95 10.29 A 12.876 12.876 0 0 1 3.943 9.797 A 15.024 15.024 0 0 1 3.54 9.57 Q 2.82 9.15 2.25 8.55 A 4.773 4.773 0 0 1 1.444 7.39 A 5.554 5.554 0 0 1 1.32 7.125 A 4.228 4.228 0 0 1 1.02 6.057 A 5.637 5.637 0 0 1 0.96 5.22 Q 0.96 4.11 1.425 3.15 Q 1.89 2.19 2.715 1.485 Q 3.54 0.78 4.665 0.39 A 7.079 7.079 0 0 1 6.318 0.038 A 8.666 8.666 0 0 1 7.14 0 A 8.13 8.13 0 0 1 9.545 0.349 A 7.442 7.442 0 0 1 10.41 0.675 A 8.566 8.566 0 0 1 12.26 1.795 A 7.607 7.607 0 0 1 12.96 2.43 L 11.61 4.05 Q 10.71 3.18 9.615 2.685 A 5.56 5.56 0 0 0 7.985 2.24 A 7.005 7.005 0 0 0 7.14 2.19 Q 5.787 2.19 4.868 2.704 A 3.255 3.255 0 0 0 4.485 2.955 A 2.454 2.454 0 0 0 3.496 4.742 A 3.353 3.353 0 0 0 3.48 5.07 A 3.025 3.025 0 0 0 3.527 5.618 Q 3.596 5.991 3.765 6.285 A 2.977 2.977 0 0 0 4.463 7.102 A 3.411 3.411 0 0 0 4.53 7.155 Q 5.01 7.53 5.58 7.815 Q 6.15 8.1 6.75 8.34 L 9.54 9.54 Q 10.38 9.9 11.13 10.365 A 5.836 5.836 0 0 1 12.174 11.183 A 5.282 5.282 0 0 1 12.42 11.445 A 4.626 4.626 0 0 1 13.191 12.679 A 5.339 5.339 0 0 1 13.275 12.885 A 4.642 4.642 0 0 1 13.525 13.864 A 6.33 6.33 0 0 1 13.59 14.79 Q 13.59 15.96 13.125 16.98 Q 12.66 18 11.79 18.765 Q 10.92 19.53 9.69 19.965 A 7.447 7.447 0 0 1 8.158 20.323 A 9.818 9.818 0 0 1 6.9 20.4 A 9.641 9.641 0 0 1 3.906 19.943 A 8.939 8.939 0 0 1 3.06 19.62 Q 1.29 18.84 0 17.49 Z M 15.75 26.01 L 16.23 24.06 L 16.77 24.195 A 2.559 2.559 0 0 0 17.116 24.258 A 2.089 2.089 0 0 0 17.34 24.27 A 2.917 2.917 0 0 0 18.37 24.095 A 2.583 2.583 0 0 0 19.395 23.385 A 5.608 5.608 0 0 0 20.217 22.17 A 7.443 7.443 0 0 0 20.64 21.15 L 20.97 20.07 L 15.12 5.46 L 17.67 5.46 L 20.64 13.53 A 265.834 265.834 0 0 0 20.981 14.516 A 311.78 311.78 0 0 0 21.345 15.555 Q 21.72 16.62 22.05 17.64 L 22.17 17.64 Q 22.5 16.65 22.8 15.57 Q 23.1 14.49 23.4 13.53 L 26.01 5.46 L 28.41 5.46 L 22.92 21.24 A 17.481 17.481 0 0 1 22.286 22.772 A 15.227 15.227 0 0 1 22.05 23.25 A 6.985 6.985 0 0 1 21.342 24.361 A 6.019 6.019 0 0 1 20.91 24.855 Q 20.25 25.53 19.41 25.92 A 4.107 4.107 0 0 1 18.317 26.246 A 5.479 5.479 0 0 1 17.46 26.31 Q 16.95 26.31 16.53 26.235 A 3.857 3.857 0 0 1 15.94 26.083 A 3.388 3.388 0 0 1 15.75 26.01 Z M 129.45 26.01 L 129.93 24.06 L 130.47 24.195 A 2.559 2.559 0 0 0 130.816 24.258 A 2.089 2.089 0 0 0 131.04 24.27 A 2.917 2.917 0 0 0 132.07 24.095 A 2.583 2.583 0 0 0 133.095 23.385 A 5.608 5.608 0 0 0 133.917 22.17 A 7.443 7.443 0 0 0 134.34 21.15 L 134.67 20.07 L 128.82 5.46 L 131.37 5.46 L 134.34 13.53 A 265.834 265.834 0 0 0 134.681 14.516 A 311.78 311.78 0 0 0 135.045 15.555 Q 135.42 16.62 135.75 17.64 L 135.87 17.64 Q 136.2 16.65 136.5 15.57 Q 136.8 14.49 137.1 13.53 L 139.71 5.46 L 142.11 5.46 L 136.62 21.24 A 17.481 17.481 0 0 1 135.986 22.772 A 15.227 15.227 0 0 1 135.75 23.25 A 6.985 6.985 0 0 1 135.042 24.361 A 6.019 6.019 0 0 1 134.61 24.855 Q 133.95 25.53 133.11 25.92 A 4.107 4.107 0 0 1 132.017 26.246 A 5.479 5.479 0 0 1 131.16 26.31 Q 130.65 26.31 130.23 26.235 A 3.857 3.857 0 0 1 129.64 26.083 A 3.388 3.388 0 0 1 129.45 26.01 Z M 33.69 20.04 L 31.23 20.04 L 31.23 5.46 L 33.27 5.46 L 33.48 7.56 L 33.57 7.56 A 12.357 12.357 0 0 1 35.134 6.229 A 10.809 10.809 0 0 1 35.775 5.805 A 4.806 4.806 0 0 1 37.718 5.144 A 6.086 6.086 0 0 1 38.46 5.1 A 5.833 5.833 0 0 1 39.752 5.234 Q 40.588 5.424 41.191 5.884 A 3.257 3.257 0 0 1 41.835 6.54 A 4.68 4.68 0 0 1 42.505 7.876 Q 42.715 8.516 42.813 9.302 A 12.073 12.073 0 0 1 42.9 10.8 L 42.9 20.04 L 40.44 20.04 L 40.44 11.13 Q 40.44 9.372 39.964 8.447 A 2.366 2.366 0 0 0 39.78 8.145 Q 39.137 7.254 37.755 7.231 A 4.439 4.439 0 0 0 37.68 7.23 A 3.864 3.864 0 0 0 36.498 7.406 A 3.381 3.381 0 0 0 35.67 7.8 A 8.721 8.721 0 0 0 34.999 8.292 Q 34.658 8.565 34.286 8.907 A 20.006 20.006 0 0 0 33.69 9.48 L 33.69 20.04 Z M 54.15 20.04 L 47.88 20.04 L 47.88 0.36 L 53.73 0.36 A 14.51 14.51 0 0 1 55.294 0.441 A 11.347 11.347 0 0 1 56.475 0.63 A 7.486 7.486 0 0 1 57.597 0.962 A 5.589 5.589 0 0 1 58.605 1.47 Q 59.49 2.04 59.985 2.955 A 3.974 3.974 0 0 1 60.385 4.103 Q 60.477 4.58 60.48 5.125 A 6.693 6.693 0 0 1 60.48 5.16 A 5.041 5.041 0 0 1 60.084 7.166 A 4.861 4.861 0 0 1 59.745 7.815 A 3.763 3.763 0 0 1 57.698 9.418 A 4.768 4.768 0 0 1 57.6 9.45 L 57.6 9.57 A 5.883 5.883 0 0 1 59.136 10.064 A 4.772 4.772 0 0 1 60.51 11.07 A 3.884 3.884 0 0 1 61.451 12.819 Q 61.62 13.483 61.62 14.28 A 7.602 7.602 0 0 1 61.62 14.303 Q 61.616 15.729 61.08 16.8 Q 60.54 17.88 59.55 18.6 A 6.406 6.406 0 0 1 58.16 19.36 A 8.165 8.165 0 0 1 57.18 19.68 Q 55.8 20.04 54.15 20.04 Z M 65.97 8.7 L 65.01 6.99 Q 66.03 6.33 67.5 5.715 A 7.999 7.999 0 0 1 69.927 5.134 A 9.622 9.622 0 0 1 70.74 5.1 A 6.861 6.861 0 0 1 72.196 5.244 Q 73.091 5.439 73.751 5.896 A 3.62 3.62 0 0 1 74.61 6.735 A 5.781 5.781 0 0 1 75.51 8.644 Q 75.81 9.735 75.81 11.1 L 75.81 20.04 L 73.77 20.04 L 73.56 18.3 L 73.47 18.3 Q 72.42 19.17 71.22 19.785 Q 70.02 20.4 68.64 20.4 A 5.1 5.1 0 0 1 67.156 20.193 A 4.119 4.119 0 0 1 65.595 19.32 A 3.515 3.515 0 0 1 64.49 17.37 A 5.305 5.305 0 0 1 64.38 16.26 Q 64.38 13.86 66.51 12.585 Q 68.64 11.31 73.32 10.8 Q 73.32 10.11 73.185 9.45 A 3.591 3.591 0 0 0 72.94 8.684 A 3.096 3.096 0 0 0 72.72 8.28 A 2.385 2.385 0 0 0 71.982 7.558 A 2.885 2.885 0 0 0 71.805 7.455 Q 71.22 7.14 70.32 7.14 Q 69.06 7.14 67.95 7.62 Q 66.84 8.1 65.97 8.7 Z M 94.2 15.54 L 94.2 7.47 L 92.04 7.47 L 92.04 5.61 L 94.32 5.46 L 94.62 1.38 L 96.69 1.38 L 96.69 5.46 L 100.62 5.46 L 100.62 7.47 L 96.69 7.47 L 96.69 15.57 A 5.933 5.933 0 0 0 96.738 16.354 Q 96.792 16.752 96.903 17.077 A 2.457 2.457 0 0 0 97.185 17.655 A 1.533 1.533 0 0 0 97.97 18.244 Q 98.238 18.34 98.572 18.373 A 3.758 3.758 0 0 0 98.94 18.39 A 2.911 2.911 0 0 0 99.398 18.352 A 3.813 3.813 0 0 0 99.78 18.27 Q 100.23 18.15 100.59 18 L 101.07 19.86 A 11.852 11.852 0 0 1 100.279 20.105 A 14.404 14.404 0 0 1 99.765 20.235 Q 99.06 20.4 98.37 20.4 A 6.304 6.304 0 0 1 97.513 20.345 Q 97.07 20.284 96.697 20.156 A 3.357 3.357 0 0 1 96.405 20.04 Q 95.61 19.68 95.115 19.05 A 3.591 3.591 0 0 1 94.578 18.082 A 4.557 4.557 0 0 1 94.41 17.52 A 7.926 7.926 0 0 1 94.235 16.388 A 10.045 10.045 0 0 1 94.2 15.54 Z M 90.6 6.81 L 89.34 8.43 A 6.298 6.298 0 0 0 88.267 7.643 A 5.732 5.732 0 0 0 88.005 7.5 A 3.314 3.314 0 0 0 86.75 7.153 A 3.995 3.995 0 0 0 86.43 7.14 Q 85.44 7.14 84.6 7.545 Q 83.76 7.95 83.16 8.7 A 5.389 5.389 0 0 0 82.456 9.866 A 6.627 6.627 0 0 0 82.215 10.485 A 6.684 6.684 0 0 0 81.915 11.904 A 8.382 8.382 0 0 0 81.87 12.78 A 8.308 8.308 0 0 0 81.963 14.051 A 6.507 6.507 0 0 0 82.2 15.06 A 6.041 6.041 0 0 0 82.652 16.117 A 4.958 4.958 0 0 0 83.115 16.815 Q 83.7 17.55 84.54 17.955 A 4.136 4.136 0 0 0 86.278 18.359 A 4.789 4.789 0 0 0 86.37 18.36 A 4.162 4.162 0 0 0 87.835 18.105 A 3.929 3.929 0 0 0 88.245 17.925 Q 89.1 17.49 89.79 16.89 L 90.87 18.54 Q 89.88 19.41 88.68 19.905 Q 87.48 20.4 86.16 20.4 A 7.197 7.197 0 0 1 83.778 20.01 A 6.824 6.824 0 0 1 83.46 19.89 Q 82.2 19.38 81.285 18.405 A 6.591 6.591 0 0 1 80.191 16.812 A 8.158 8.158 0 0 1 79.845 16.005 A 8.371 8.371 0 0 1 79.407 14.181 A 10.91 10.91 0 0 1 79.32 12.78 A 10.025 10.025 0 0 1 79.461 11.058 A 7.656 7.656 0 0 1 79.89 9.525 A 7.828 7.828 0 0 1 80.742 7.932 A 6.712 6.712 0 0 1 81.42 7.11 Q 82.38 6.12 83.655 5.61 Q 84.93 5.1 86.34 5.1 Q 87.78 5.1 88.8 5.61 A 8.63 8.63 0 0 1 90.142 6.436 A 7.584 7.584 0 0 1 90.6 6.81 Z M 122.22 20.04 L 119.76 20.04 L 119.76 5.46 L 121.8 5.46 L 122.01 8.1 L 122.1 8.1 A 7.677 7.677 0 0 1 122.929 6.863 A 5.997 5.997 0 0 1 123.915 5.91 A 3.951 3.951 0 0 1 125.23 5.239 A 3.674 3.674 0 0 1 126.24 5.1 A 4.328 4.328 0 0 1 127.114 5.185 A 3.471 3.471 0 0 1 127.8 5.4 L 127.32 7.56 A 6.527 6.527 0 0 0 126.98 7.457 Q 126.815 7.411 126.665 7.381 A 3.674 3.674 0 0 0 126.66 7.38 A 2.701 2.701 0 0 0 126.414 7.344 Q 126.282 7.33 126.129 7.324 A 5.929 5.929 0 0 0 125.91 7.32 Q 124.98 7.32 123.975 8.07 A 3.811 3.811 0 0 0 123.258 8.788 Q 122.698 9.505 122.235 10.644 A 12.255 12.255 0 0 0 122.22 10.68 L 122.22 20.04 Z M 109.149 20.4 A 7.122 7.122 0 0 0 109.17 20.4 Q 110.52 20.4 111.735 19.89 Q 112.95 19.38 113.88 18.405 A 6.542 6.542 0 0 0 114.622 17.466 A 7.903 7.903 0 0 0 115.365 16.005 A 7.81 7.81 0 0 0 115.772 14.537 A 10.012 10.012 0 0 0 115.92 12.78 A 10.56 10.56 0 0 0 115.825 11.334 A 7.98 7.98 0 0 0 115.365 9.525 A 8.585 8.585 0 0 0 115.023 8.758 A 7.034 7.034 0 0 0 113.88 7.11 Q 112.95 6.12 111.735 5.61 Q 110.52 5.1 109.17 5.1 Q 107.82 5.1 106.605 5.61 Q 105.39 6.12 104.46 7.11 A 6.72 6.72 0 0 0 103.766 7.986 A 7.996 7.996 0 0 0 102.975 9.525 A 7.821 7.821 0 0 0 102.557 11.064 A 10.296 10.296 0 0 0 102.42 12.78 A 10.399 10.399 0 0 0 102.501 14.103 A 8.04 8.04 0 0 0 102.975 16.005 A 8.428 8.428 0 0 0 103.338 16.812 A 6.825 6.825 0 0 0 104.46 18.405 Q 105.39 19.38 106.605 19.89 A 6.557 6.557 0 0 0 109.149 20.4 Z M 109.17 18.36 Q 110.1 18.36 110.88 17.955 Q 111.66 17.55 112.215 16.815 A 5.029 5.029 0 0 0 112.833 15.728 A 6.328 6.328 0 0 0 113.07 15.06 A 7.22 7.22 0 0 0 113.313 13.837 A 9.36 9.36 0 0 0 113.37 12.78 A 9.179 9.179 0 0 0 113.28 11.469 A 7.253 7.253 0 0 0 113.07 10.485 A 6.191 6.191 0 0 0 112.666 9.438 A 4.983 4.983 0 0 0 112.215 8.7 A 3.935 3.935 0 0 0 111.188 7.724 A 3.731 3.731 0 0 0 110.88 7.545 A 3.642 3.642 0 0 0 109.228 7.141 A 4.238 4.238 0 0 0 109.17 7.14 Q 108.24 7.14 107.46 7.545 A 3.847 3.847 0 0 0 106.178 8.631 A 4.462 4.462 0 0 0 106.125 8.7 A 5.177 5.177 0 0 0 105.509 9.8 A 6.514 6.514 0 0 0 105.27 10.485 A 7.507 7.507 0 0 0 105.016 11.83 A 9.551 9.551 0 0 0 104.97 12.78 A 9.128 9.128 0 0 0 105.054 14.047 A 7.062 7.062 0 0 0 105.27 15.06 A 6.008 6.008 0 0 0 105.674 16.091 A 4.839 4.839 0 0 0 106.125 16.815 Q 106.68 17.55 107.46 17.955 A 3.642 3.642 0 0 0 109.112 18.36 A 4.238 4.238 0 0 0 109.17 18.36 Z M 50.37 10.65 L 50.37 18.06 L 53.79 18.06 A 11.138 11.138 0 0 0 55.272 17.968 Q 56.781 17.765 57.75 17.115 A 3.081 3.081 0 0 0 59.106 14.924 A 4.795 4.795 0 0 0 59.16 14.19 A 3.806 3.806 0 0 0 59.011 13.094 A 2.747 2.747 0 0 0 57.78 11.505 Q 56.414 10.659 53.841 10.65 A 15.834 15.834 0 0 0 53.79 10.65 L 50.37 10.65 Z M 50.37 2.34 L 50.37 8.73 L 53.28 8.73 A 11.613 11.613 0 0 0 54.519 8.669 Q 55.825 8.528 56.608 8.065 A 2.782 2.782 0 0 0 56.91 7.86 A 2.795 2.795 0 0 0 58.006 5.816 A 3.788 3.788 0 0 0 58.02 5.49 A 3.947 3.947 0 0 0 57.919 4.565 A 2.341 2.341 0 0 0 56.865 3.06 A 3.924 3.924 0 0 0 55.91 2.643 Q 54.982 2.365 53.645 2.342 A 14.233 14.233 0 0 0 53.4 2.34 L 50.37 2.34 Z M 73.32 16.47 L 73.32 12.42 Q 71.928 12.603 70.874 12.837 A 16.235 16.235 0 0 0 70.245 12.99 A 11.482 11.482 0 0 0 69.395 13.249 Q 68.994 13.389 68.66 13.547 A 5.293 5.293 0 0 0 68.235 13.77 A 3.954 3.954 0 0 0 67.701 14.142 Q 67.427 14.372 67.24 14.63 A 2.223 2.223 0 0 0 67.125 14.805 Q 66.78 15.39 66.78 16.08 A 3.315 3.315 0 0 0 66.843 16.748 Q 66.997 17.496 67.53 17.88 Q 68.28 18.42 69.36 18.42 Q 70.41 18.42 71.34 17.925 A 7.663 7.663 0 0 0 72.169 17.408 Q 72.569 17.125 72.989 16.764 A 14.422 14.422 0 0 0 73.32 16.47 Z" vector-effect="non-scaling-stroke"/></g></svg>