<svg xmlns="http://www.w3.org/2000/svg" xmlns:xlink="http://www.w3.org/1999/xlink" viewBox="0 0 1099 1080"><defs><style>.cls-1{fill:#212529;}.cls-2{fill:url(#linear-gradient);}.cls-3{fill:url(#linear-gradient-2);}.cls-4{fill:url(#linear-gradient-3);}.cls-5{fill:url(#linear-gradient-4);}</style><linearGradient id="linear-gradient" x1="590.6" y1="541.3" x2="658.64" y2="465.72" gradientUnits="userSpaceOnUse"><stop offset="0" stop-color="#0d9369"/><stop offset="0.26" stop-color="#10986e"/><stop offset="0.58" stop-color="#18a87d"/><stop offset="0.94" stop-color="#25c296"/><stop offset="1" stop-color="#28c79b"/></linearGradient><linearGradient id="linear-gradient-2" x1="311.91" y1="365.92" x2="593.22" y2="570.3" gradientUnits="userSpaceOnUse"><stop offset="0" stop-color="#27668d"/><stop offset="0.37" stop-color="#27638a"/><stop offset="0.67" stop-color="#265980"/><stop offset="0.93" stop-color="#24496f"/><stop offset="1" stop-color="#24446a"/></linearGradient><linearGradient id="linear-gradient-3" x1="465.67" y1="502.4" x2="806.14" y2="668.46" gradientUnits="userSpaceOnUse"><stop offset="0" stop-color="#27668d"/><stop offset="0.33" stop-color="#265f86"/><stop offset="0.81" stop-color="#254d73"/><stop offset="1" stop-color="#24446a"/></linearGradient><linearGradient id="linear-gradient-4" x1="561.52" y1="558.49" x2="736.9" y2="727.86" gradientUnits="userSpaceOnUse"><stop offset="0.3" stop-color="#fcf462"/><stop offset="0.6" stop-color="#fee34b"/><stop offset="0.8" stop-color="#ffd73a"/></linearGradient></defs><title>Synbactory logo</title><g id="Layer_2" data-name="Layer 2"><rect class="cls-1" width="1099" height="1080" rx="8.43"/></g><g id="Layer_1" data-name="Layer 1"><path class="cls-2" d="M602,532.84a10.61,10.61,0,0,1-6.11-4.14,2.08,2.08,0,0,1-.06-2.53,70.77,70.77,0,0,1,27.33-25.89c4.91-2.62,9.87-5.15,14.73-7.86a44.08,44.08,0,0,0,15.26-13.26c1.47-2.13,2.66-4.44,4-6.68a1.34,1.34,0,0,0,.18-.76,2.42,2.42,0,0,0-.25.31,37.78,37.78,0,0,1-17.16,15.15c-5.07,2.36-10.27,4.45-15.41,6.66-7.48,3.2-14.43,7.23-20.31,12.94-.11.1-.23.17-.39.29a22.82,22.82,0,0,1-2.46-12.68c1.23-11.12,7.19-18.78,17.36-23.28a86.23,86.23,0,0,1,16.55-5c3.46-.76,6.94-1.47,10.35-2.4,8.29-2.24,11.85-4.48,17.67-10.86a1.87,1.87,0,0,1,.27.31c8.45,16.14,9,32.39.24,48.54-5.85,10.77-15.26,16.76-27.19,19a37,37,0,0,1-18.63-.92c-1.91-.63-3.73-1.54-5.71-2.37C607.73,521.64,604.91,527.23,602,532.84Z" transform="translate(14.4)"/><path class="cls-3" d="M312.87,595.27l49.22-35.19c17.72,31,50.69,48.73,88.84,48.73,44.54,0,78.25-21.41,78.25-51.68,0-36.67-52.17-58.82-98.43-78.75-46.52-20.67-98.19-44.79-98.19-107,0-65,56.35-110.25,127.72-110.25,56.6,0,98.93,27.31,115.17,70.87l-46.27,32c-12.3-26.83-39.62-41.84-68.41-41.84-36.42,0-65.46,22.64-65.46,50.7,0,31,36.67,42.08,84.9,62.75C543,463.12,591.69,493.39,591.69,555.9c0,70.38-61,115.66-141.5,115.66C385,671.56,335.51,641.05,312.87,595.27Z" transform="translate(14.4)"/><path class="cls-4" d="M803.68,645.33c0,60.78-46,120.83-124.77,120.83H530.51V369.46H638.8c68.41,0,114.68,49.21,114.68,101.88,0,42.82-29.78,71.37-44.55,71.37C753.48,542.71,803.68,583.56,803.68,645.33ZM592.53,430v98.92l49.22-.24c30.76.24,53.4-20.92,53.4-49.22S670.54,430,642.49,430ZM742.89,641.14c0-30-25.59-57.58-70.63-57.58l-79.73.24V705.37h80.72C708.93,705.37,742.89,679.53,742.89,641.14Z" transform="translate(14.4)"/><path class="cls-5" d="M754.09,658.6v46.59a.53.53,0,0,1-.54.53H592.33a.53.53,0,0,1-.53-.53v-107h0V527.18h24.36v80.47l41.66-24h.3v24l38.22-22.07h0c1.31.31,2.61.65,3.89,1v21L720.39,596A74.91,74.91,0,0,1,754.09,658.6Z" transform="translate(14.4)"/><rect class="cls-1" x="630.51" y="644.66" width="24.51" height="36"/><rect class="cls-1" x="675.09" y="644.66" width="24.51" height="36"/><rect class="cls-1" x="716.98" y="644.66" width="24.51" height="36"/></g></svg>